<svg width="24" height="24" viewBox="0 0 24 24" fill="none" xmlns="http://www.w3.org/2000/svg">
<path d="M5.83398 11.5769H7.36732V12.8333H5.83398V11.5769ZM5.83398 16.0897H7.36732V17.3461H5.83398V16.0897ZM10.9007 11.5769H12.434V12.8333H10.9007V11.5769ZM10.9007 16.0897H12.434V17.3461H10.9007V16.0897ZM15.9673 11.5769H17.5007V12.8333H15.9673V11.5769ZM15.9673 16.0897H17.5007V17.3461H15.9673V16.0897Z" fill="black" stroke="black"/>
<path d="M18.1667 2.4V2.9H18.6667H21.3333C22.5787 2.9 23.5 3.80079 23.5 4.8V21.6C23.5 22.5992 22.5787 23.5 21.3333 23.5H2.66667C1.42129 23.5 0.5 22.5992 0.5 21.6V4.8C0.5 3.80079 1.42129 2.9 2.66667 2.9H5.33333H5.83333V2.4V0.5H7.5V2.4V2.9H8H16H16.5V2.4V0.5H18.1667V2.4ZM21.8333 7.19995L21.8333 6.7H21.3333H2.66667H2.16667V7.2V21.6V22.1H2.66667H21.3347H21.8347L21.8347 21.6L21.8333 7.19995Z" fill="black" stroke="black"/>
</svg>
