<svg width="762" height="458" viewBox="0 0 762 458" fill="none" xmlns="http://www.w3.org/2000/svg">
<g clip-path="url(#clip0)">
<path d="M52.6777 429.757L97.6187 365.231L52.6549 436.775L52.6287 444.117C49.4238 444.09 46.2514 443.986 43.1113 443.804C43.097 442.137 46.9167 350.421 46.7544 348.761C46.9761 348.698 47.1005 340.087 47.1884 339.71L0.238281 269.198L47.2388 333.036L47.379 334.923L50.1672 263.665L9.8086 190.694L50.4865 251.145C50.5016 250.175 52.4118 103.866 52.4306 102.963C52.4421 103.443 53.3188 219.396 53.3253 219.885L91.9236 173.212L53.2883 229.914L53.0909 293.69L88.9097 232.018C44.2082 321.956 54.1009 290.484 52.9592 338.528L104.988 252.655L52.9147 350.899L52.6777 429.757Z" fill="#42CF00"/>
<path d="M740.246 434.738L770.639 391.339L740.23 439.458L740.212 444.396C738.045 444.378 735.9 444.308 733.776 444.186C733.766 443.065 736.349 381.378 736.24 380.262C736.39 380.219 736.474 374.428 736.533 374.174L704.781 326.749L736.567 369.685L736.662 370.955L738.548 323.028L711.254 273.949L738.764 314.607C738.774 313.955 740.066 215.55 740.078 214.943C740.086 215.265 740.679 293.253 740.684 293.582L766.787 262.191L740.659 300.327L740.525 343.222L764.749 301.743C734.518 362.233 741.208 341.065 740.436 373.379L775.623 315.622L740.406 381.7L740.246 434.738Z" fill="#42CF00"/>
<path d="M379.755 458C589.487 458 759.509 451.343 759.509 443.132C759.509 434.921 589.487 428.264 379.755 428.264C170.022 428.264 0 434.921 0 443.132C0 451.343 170.022 458 379.755 458Z" fill="#FAE4E1"/>
<path d="M563.964 175.604H130.363V433.929H563.964V175.604Z" fill="#7DABFA"/>
<path d="M237.672 175.604C237.229 202.787 226.112 228.708 206.72 247.775C187.327 266.843 161.211 277.531 134.005 277.534C132.786 277.534 131.575 277.512 130.363 277.47V175.604H237.672Z" fill="white"/>
<path d="M368.374 433.929H327.135C328.686 429.712 331.496 426.072 335.183 423.501C338.87 420.93 343.258 419.552 347.754 419.552C352.251 419.552 356.639 420.93 360.326 423.501C364.013 426.072 366.822 429.712 368.374 433.929V433.929Z" fill="white"/>
<path d="M563.963 300.31V387.322C552.784 386.776 542.244 381.954 534.525 373.855C526.807 365.756 522.502 355 522.502 343.816C522.502 332.632 526.807 321.876 534.525 313.777C542.244 305.678 552.784 300.856 563.963 300.31V300.31Z" fill="white"/>
<path d="M484.671 269.603H211.134C204.079 269.603 198.359 275.318 198.359 282.369V282.369C198.359 289.419 204.079 295.135 211.134 295.135H484.671C491.726 295.135 497.446 289.419 497.446 282.369C497.446 275.318 491.726 269.603 484.671 269.603Z" fill="white"/>
<path d="M484.308 319.786H210.771C203.716 319.786 197.996 325.501 197.996 332.552V332.552C197.996 339.602 203.716 345.318 210.771 345.318H484.308C491.363 345.318 497.083 339.602 497.083 332.552C497.083 325.501 491.363 319.786 484.308 319.786Z" fill="white"/>
<path d="M484.308 370.099H404.998C397.942 370.099 392.223 375.814 392.223 382.865C392.223 389.915 397.942 395.63 404.998 395.63H484.308C491.364 395.63 497.083 389.915 497.083 382.865C497.083 375.814 491.364 370.099 484.308 370.099Z" fill="white"/>
<path d="M632.724 79.3799C632.724 79.3799 644.648 84.0133 645.31 99.2376C645.972 114.462 641.998 156.825 641.998 156.825C641.998 156.825 656.571 178.007 645.31 183.964C634.049 189.921 632.724 160.135 632.724 160.135L619.477 97.2518C619.477 97.2518 627.425 78.7179 632.724 79.3799Z" fill="#A0616A"/>
<path d="M510.843 128.362C510.843 128.362 482.36 146.896 481.036 132.334C479.711 117.772 489.647 60.8461 489.647 60.8461C489.647 60.8461 490.972 36.3549 504.882 42.3122C518.792 48.2696 500.907 68.7892 500.907 68.7892L502.895 115.124L516.142 114.462L510.843 128.362Z" fill="#A0616A"/>
<path d="M556.55 145.572C556.55 145.572 469.114 113.138 473.75 150.868C478.387 188.597 500.909 236.256 500.909 236.256L508.857 248.833H525.417L514.819 180.654C514.819 180.654 552.575 201.836 563.836 198.526C563.836 198.526 578.409 295.829 583.708 303.11C589.007 310.391 598.281 398.427 598.281 398.427L606.892 409.018H623.452V260.085C623.452 260.085 651.935 167.416 630.076 162.782C608.217 158.149 556.55 145.572 556.55 145.572Z" fill="#2F2E41"/>
<path d="M506.871 240.227C506.871 240.227 502.896 232.946 496.273 240.227C489.649 247.509 473.751 256.114 473.751 256.114C473.751 256.114 439.306 264.057 467.127 270.676C494.948 277.295 498.26 270.676 498.26 270.676C498.26 270.676 502.896 272 506.871 273.324C510.845 274.647 536.679 270.014 536.679 266.042C536.679 262.071 527.909 238.336 524.345 241.929C520.781 245.523 506.871 240.227 506.871 240.227Z" fill="#2F2E41"/>
<path d="M608.16 402.466C608.16 402.466 598.393 394.429 596.095 396.725C593.797 399.022 581.733 414.522 581.733 414.522C581.733 414.522 549.56 439.209 578.86 443.227C608.16 447.246 606.437 436.338 606.437 436.338H615.629C616.778 436.338 632.29 429.449 631.715 426.578C631.141 423.708 624.246 400.301 621.948 401.958C619.65 403.614 608.16 402.466 608.16 402.466Z" fill="#2F2E41"/>
<path d="M519.455 54.2268C531.893 54.2268 541.976 44.1508 541.976 31.7214C541.976 19.292 531.893 9.21594 519.455 9.21594C507.017 9.21594 496.934 19.292 496.934 31.7214C496.934 44.1508 507.017 54.2268 519.455 54.2268Z" fill="#A0616A"/>
<path d="M535.354 29.0737C535.354 29.0737 552.576 43.6361 564.499 43.6361C576.422 43.6361 547.277 70.775 547.277 70.775L521.443 47.6076L535.354 29.0737Z" fill="#A0616A"/>
<path d="M541.977 70.7748L541.461 65.5599C541.461 65.5599 554.562 42.3121 558.537 40.3263C562.511 38.3405 565.161 38.3405 565.161 38.3405C565.161 38.3405 578.409 24.4401 592.981 31.7213C607.554 39.0024 641.999 85.3371 641.999 85.3371C641.999 85.3371 617.49 87.3229 620.802 106.519C620.802 106.519 645.311 169.401 638.687 170.063C632.063 170.725 612.191 166.092 591.657 175.359C571.122 184.626 561.849 178.668 561.849 178.668L551.25 144.248C551.25 144.248 531.378 132.996 532.041 123.067L503.227 135.974L505.876 111.483L523.43 91.2944C523.43 91.2944 520.118 88.6467 541.977 70.7748Z" fill="#E75D52"/>
<path d="M498.738 34.1545C497.843 35.1485 496.721 35.9121 495.468 36.3802C494.185 36.7417 492.569 36.2984 492.058 35.0684L493.01 33.8299L490.155 32.0571L491.399 30.5986L489.1 28.1034L490.914 26.6645L487.459 24.195C491.937 16.8923 496.781 9.49812 503.851 4.65714C510.922 -0.183851 520.802 -1.90402 528.045 2.67489C531.806 5.05221 534.465 8.82539 536.595 12.7296C540.879 20.5814 544.655 28.2352 545.213 37.1608C542.522 34.5421 538.593 33.0665 535.902 30.4478C534.711 29.1843 533.361 28.0799 531.886 27.1622C529.071 25.5761 525.703 25.4358 522.552 24.7204C519.903 24.1188 518.184 22.9254 516.179 21.2193C513.795 19.1898 513.698 19.9745 511.29 22.2595C507.108 26.2273 502.925 30.1923 498.738 34.1545Z" fill="#2F2E41"/>
</g>
<defs>
<clipPath id="clip0">
<rect width="762" height="458" fill="white"/>
</clipPath>
</defs>
</svg>
