<svg width="675" height="768" viewBox="0 0 675 768" fill="none" xmlns="http://www.w3.org/2000/svg">
<rect width="675" height="768" fill="#FAE4E1"/>
<g clip-path="url(#clip0)">
<path opacity="0.1" d="M235.143 605.609C265.753 605.609 290.567 601.617 290.567 596.692C290.567 591.767 265.753 587.775 235.143 587.775C204.533 587.775 179.719 591.767 179.719 596.692C179.719 601.617 204.533 605.609 235.143 605.609Z" fill="#F50000"/>
<path opacity="0.1" d="M532.977 607C571.174 607 602.138 603.007 602.138 598.082C602.138 593.157 571.174 589.165 532.977 589.165C494.781 589.165 463.816 593.157 463.816 598.082C463.816 603.007 494.781 607 532.977 607Z" fill="#F50000"/>
<path opacity="0.1" d="M30.603 353.704H88.3309V432.523H34.8292C34.687 433.332 34.5505 434.147 34.4026 434.962H88.3309V498.528C88.2342 498.5 88.1489 498.466 88.0579 498.431C86.5335 497.827 85.0205 497.189 83.5074 496.505L82.5405 496.067C81.0237 495.349 79.5069 494.589 77.9901 493.788C77.4611 493.508 76.9321 493.218 76.4088 492.921C67.9881 488.196 60.3384 482.209 53.7249 475.167C53.5315 474.979 53.3495 474.779 53.1561 474.597C52.2346 473.594 51.3302 472.58 50.4543 471.543L49.4873 470.403C48.4521 469.133 47.451 467.828 46.4783 466.506C46.3361 466.312 46.1996 466.118 46.0517 465.936C42.096 460.442 38.8114 454.492 36.2683 448.215C36.1887 448.027 36.1204 447.822 36.0465 447.646C35.2653 445.632 34.5733 443.6 33.9703 441.549C33.7087 440.688 33.4584 439.84 33.2423 438.945C33.1626 438.683 33.0944 438.426 33.0318 438.17C29.801 425.538 29.4199 412.415 29.4199 399.384C29.4199 397.863 29.4199 396.336 29.4199 394.826C29.4199 389.555 29.4825 384.25 29.5735 378.951C29.5735 377.578 29.6304 376.211 29.6588 374.832C29.7385 371.333 29.8522 367.835 30.0001 364.336C30.0342 363.362 30.0797 362.393 30.1309 361.425C30.1309 360.866 30.1594 360.308 30.2162 359.749C30.3528 357.721 30.4665 355.71 30.603 353.704Z" fill="#F50000"/>
<path opacity="0.1" d="M88.3313 265.944H56.666C61.8134 257.874 67.4375 250.118 73.5083 242.72C78.2123 236.931 83.178 231.29 88.3313 225.854V265.944Z" fill="#F50000"/>
<path opacity="0.1" d="M88.3291 268.383V351.265H30.7832C30.7832 351.026 30.823 350.781 30.8401 350.541C30.8913 349.886 30.9425 349.231 30.9993 348.581C31.0619 347.818 31.1302 347.048 31.2041 346.302C31.2781 345.556 31.3577 344.644 31.443 343.818C31.5283 342.992 31.608 342.154 31.7047 341.328C31.8014 340.502 31.8867 339.675 31.9891 338.855C32.0915 338.034 32.1825 337.202 32.2905 336.382C32.3759 335.698 32.4669 335.02 32.5579 334.336C32.6887 333.373 32.8252 332.405 32.9731 331.448C32.9731 331.305 33.0129 331.157 33.0357 331.02C34.0738 324.013 35.4884 317.066 37.2733 310.211C39.1415 303.02 41.5273 295.975 44.4117 289.129C47.4774 281.968 51.0668 275.043 55.1508 268.411L88.3291 268.383Z" fill="#F50000"/>
<path opacity="0.1" d="M102.11 353.698V432.523H225.41V353.698H102.11ZM102.11 434.956V502.648C102.816 502.796 103.515 502.938 104.209 503.058C105.153 503.24 106.092 503.406 107.053 503.548C107.235 503.577 107.423 503.605 107.622 503.622C107.997 503.685 108.384 503.736 108.76 503.787C109.71 503.918 110.654 504.027 111.604 504.112C112.053 504.158 112.508 504.198 112.963 504.232L114.061 504.317C114.658 504.363 115.25 504.397 115.836 504.414C116.2 504.414 116.564 504.448 116.939 504.46C117.223 504.46 117.508 504.46 117.804 504.46C118.099 504.46 118.52 504.46 118.879 504.46C119.368 504.46 119.857 504.46 120.34 504.46H120.995C121.484 504.46 121.973 504.46 122.456 504.414H122.491C122.826 504.414 123.167 504.414 123.509 504.369C123.603 504.374 123.698 504.374 123.793 504.369C124.078 504.369 124.362 504.369 124.635 504.329H124.834L126.74 504.18C127.365 504.124 127.997 504.049 128.634 503.981L129.931 503.827C135.207 503.087 140.424 501.975 145.544 500.5C157.045 497.286 168.296 492.79 179.792 489.497C194.655 485.252 211.076 483.167 225.438 488.357V434.956H102.11ZM225.41 265.944V161.005C211.911 160.859 198.448 162.441 185.349 165.712C154.127 173.569 126.114 190.612 102.11 212.378V265.939H108.299V268.372H102.11V351.265H225.41V268.377H133.707V265.944H225.41ZM383.782 230.497C376.057 230.224 368.379 227.774 361.434 223.99C348.152 216.754 337.544 205.58 325.69 196.15C301.061 176.509 270.516 164.658 239.181 161.718V265.944H415.197L415.635 265.483L383.782 230.497ZM399.816 227.648L416.818 246.338V222.748C411.124 223.455 406.136 225.136 399.839 227.626L399.816 227.648ZM416.818 519.457V434.956H380.591C380.494 434.597 380.397 434.233 380.284 433.868C380.392 434.233 380.483 434.597 380.585 434.956H239.203V496.067C240.546 497.064 241.871 498.112 243.185 499.178C244.601 500.317 246.001 501.52 247.405 502.699L248.822 503.873C249.499 504.443 250.181 505.012 250.869 505.548C252.235 506.657 253.613 507.751 255.005 508.83C255.693 509.4 256.398 509.913 257.098 510.448C268.205 518.955 279.922 526.632 292.153 533.417C294.895 534.936 297.661 536.419 300.452 537.867C302.312 538.818 304.183 539.764 306.06 540.681C308.882 542.06 311.726 543.39 314.593 544.67C341.023 556.555 368.971 564.71 397.638 568.903C404.005 569.845 410.396 570.586 416.812 571.125V519.451H417.381L416.818 519.457ZM239.203 268.377V351.265H416.841V268.377H239.203ZM239.203 353.698V432.523H416.841V353.698H239.203ZM430.628 222.646V248.959L452.328 225.107C445.139 223.945 437.905 223.115 430.628 222.617V222.646ZM430.628 353.727V432.523H603.402V353.698L430.628 353.727ZM602.771 525.713L603.38 434.956H430.628V572.031C441.757 572.5 452.903 572.367 464.017 571.633H464.211C469.519 571.298 474.804 570.812 480.063 570.174H480.183C508.242 566.903 535.679 559.569 561.635 548.402L602.771 525.713ZM636.717 366.678C636.069 365.145 635.392 363.624 634.704 362.12C633.418 359.271 632.059 356.501 630.659 353.732H617.179V432.523H651.262C651.244 410.21 645.608 387.418 636.734 366.649L636.717 366.678ZM617.179 434.985V513.046C626.78 503.827 634.891 493.28 640.733 481.224C647.758 466.705 650.971 450.985 651.233 434.973L617.179 434.985ZM617.179 330.758V351.271H629.397C625.701 344.209 621.628 337.353 617.196 330.73L617.179 330.758ZM500.005 238.11C499.107 237.768 498.208 237.42 497.304 237.084C487.765 233.556 478.018 230.621 468.118 228.298L434.911 264.805L434.274 265.483L434.701 265.95H552.887C536.427 254.6 518.682 245.245 500.022 238.081L500.005 238.11ZM556.351 268.406H433.051L430.628 270.628V351.265H451.868H451.902H603.425V312.206C589.718 295.6 573.898 280.865 556.368 268.377L556.351 268.406Z" fill="#FF0000"/>
<path opacity="0.1" d="M88.3291 310.189V351.265H30.7832C30.7832 351.026 30.823 350.781 30.8401 350.541C30.8913 349.886 30.9425 349.231 30.9993 348.581C31.0619 347.818 31.1302 347.049 31.2041 346.302C31.2781 345.556 31.3577 344.644 31.443 343.818C31.5283 342.992 31.608 342.154 31.7047 341.328C31.8014 340.502 31.8867 339.675 31.9891 338.855C32.0915 338.034 32.1825 337.203 32.2905 336.382C32.3759 335.698 32.4669 335.02 32.5579 334.337C32.6887 333.374 32.8252 332.405 32.9731 331.448C32.9731 331.305 33.0129 331.157 33.0357 331.02C34.0738 324.013 35.4884 317.066 37.2733 310.212L88.3291 310.189Z" fill="#F50000"/>
<path opacity="0.1" d="M30.603 353.704H88.3309V432.523H34.8292C34.687 433.332 34.5505 434.147 34.4026 434.962H88.3309V498.528C88.2342 498.5 88.1489 498.466 88.0579 498.431C86.5335 497.827 85.0205 497.189 83.5074 496.505L82.5405 496.067C81.0237 495.349 79.5069 494.589 77.9901 493.788C77.4611 493.508 76.9321 493.218 76.4088 492.921C67.9881 488.196 60.3384 482.209 53.7249 475.167C53.5315 474.979 53.3495 474.779 53.1561 474.597C52.2346 473.594 51.3302 472.58 50.4543 471.543L49.4873 470.403C48.4521 469.133 47.451 467.828 46.4783 466.506C46.3361 466.312 46.1996 466.118 46.0517 465.936C42.096 460.442 38.8114 454.492 36.2683 448.215C36.1887 448.027 36.1204 447.822 36.0465 447.646C35.2653 445.632 34.5733 443.6 33.9703 441.549C33.7087 440.688 33.4584 439.84 33.2423 438.945C33.1626 438.683 33.0944 438.426 33.0318 438.17C29.801 425.538 29.4199 412.415 29.4199 399.384C29.4199 397.863 29.4199 396.336 29.4199 394.826C29.4199 389.555 29.4825 384.25 29.5735 378.951C29.5735 377.578 29.6304 376.211 29.6588 374.832C29.7385 371.333 29.8522 367.835 30.0001 364.336C30.0342 363.362 30.0797 362.393 30.1309 361.425C30.1309 360.866 30.1594 360.308 30.2162 359.749C30.3528 357.721 30.4665 355.71 30.603 353.704Z" fill="#F50000"/>
<path opacity="0.1" d="M145.516 280.246V351.265H102.11V280.246H108.299V256.201H133.702V280.246H145.516Z" fill="#F50000"/>
<path opacity="0.1" d="M145.516 353.698H102.116V432.517H145.516V353.698Z" fill="#F50000"/>
<path opacity="0.1" d="M102.11 434.962H145.516V500.488C140.396 501.962 135.178 503.072 129.902 503.81L128.605 503.97C127.968 504.044 127.337 504.106 126.711 504.169C126.085 504.232 125.437 504.277 124.806 504.317H124.607C124.333 504.317 124.038 504.351 123.77 504.357H123.48C123.139 504.357 122.798 504.391 122.456 504.403C121.973 504.431 121.489 504.437 120.995 504.443C120.784 504.443 120.585 504.443 120.375 504.443C119.885 504.443 119.402 504.443 118.913 504.443H117.838C117.548 504.443 117.269 504.443 116.967 504.443L115.87 504.403C115.301 504.403 114.687 504.34 114.095 504.3L113.003 504.22L111.643 504.095C110.688 504.01 109.738 503.901 108.799 503.77L107.662 503.611L107.093 503.531C106.143 503.383 105.205 503.223 104.249 503.041C103.549 502.921 102.855 502.773 102.15 502.631L102.11 434.962Z" fill="#F50000"/>
<path opacity="0.1" d="M416.911 235.073H381.076V351.311H416.911V235.073Z" fill="#F50000"/>
<path opacity="0.1" d="M416.85 353.698V432.523H239.207V398.524H333.827V418.58H381.055V353.698H416.85Z" fill="#F50000"/>
<path opacity="0.1" d="M417.413 519.474H416.844V571.183C410.436 570.64 404.046 569.901 397.676 568.966C368.995 564.76 341.035 556.587 314.596 544.682C306.963 541.24 299.485 537.483 292.163 533.411C279.931 526.623 268.213 518.946 257.102 510.443C254.311 508.3 251.556 506.109 248.837 503.867C246.954 502.312 245.083 500.716 243.189 499.167C241.875 498.101 240.549 497.053 239.207 496.05V434.962H380.583C380.486 434.598 380.39 434.233 380.287 433.874C380.395 434.233 380.498 434.598 380.595 434.962H416.844V519.44C417.038 519.446 417.225 519.463 417.413 519.474Z" fill="#F50000"/>
<path opacity="0.1" d="M510.183 265.944H486.862V258.685H497.317V237.062C498.223 237.392 499.126 237.732 500.024 238.081V258.685H510.183V265.944Z" fill="#F50000"/>
<path opacity="0.1" d="M566.371 351.265H451.882C451.882 351.265 451.882 351.265 451.922 351.293L451.871 351.265H430.632V271.864H436.65V330.553H464.151V295.796H486.869V268.383H510.19V295.818H532.908V330.576H566.371V351.265Z" fill="#F50000"/>
<path opacity="0.1" d="M430.632 353.698V432.523H566.371V353.698H430.632ZM603.218 525.308L603.406 462.916H566.371V434.996H430.632V572.031C441.76 572.5 452.906 572.367 464.021 571.632H464.214C469.523 571.298 474.807 570.812 480.067 570.174H480.186C508.245 566.903 535.682 559.569 561.639 548.402" fill="#F50000"/>
<path opacity="0.1" d="M619.591 434.962H651.256C650.978 450.967 647.77 466.688 640.751 481.206C634.909 493.269 626.792 503.816 617.202 513.029V462.887H619.591V434.962Z" fill="#F50000"/>
<path opacity="0.1" d="M651.275 432.523H619.593V366.649H636.737C645.61 387.418 651.247 410.21 651.275 432.523Z" fill="#F50000"/>
<path opacity="0.1" d="M416.848 293.932H397.674V318.827H416.848V293.932Z" fill="#F50000"/>
<path opacity="0.1" d="M416.848 345.533H397.674V351.265H416.848V345.533Z" fill="#F50000"/>
<path opacity="0.1" d="M416.848 353.698H397.674V370.421H416.848V353.698Z" fill="#F50000"/>
<path opacity="0.1" d="M416.848 397.133H397.674V422.028H416.848V397.133Z" fill="#F50000"/>
<path opacity="0.1" d="M416.848 448.734H397.674V473.628H416.848V448.734Z" fill="#F50000"/>
<path opacity="0.1" d="M416.843 519.44C417.036 519.44 417.224 519.44 417.411 519.474H416.843V525.257H397.674V500.334H416.843V519.44Z" fill="#F50000"/>
<path opacity="0.1" d="M416.843 551.924V571.154C410.434 570.611 404.044 569.872 397.674 568.938V551.924H416.843Z" fill="#F50000"/>
<path opacity="0.1" d="M321.382 430.694H239.207V432.523H321.382V430.694Z" fill="#F50000"/>
<path opacity="0.1" d="M321.382 434.957H239.207V441.965H321.382V434.957Z" fill="#F50000"/>
<path opacity="0.1" d="M321.382 464.939H239.207V476.209H321.382V464.939Z" fill="#F50000"/>
<path opacity="0.1" d="M321.373 499.184V510.454H257.098C254.307 508.319 251.551 506.128 248.828 503.879C246.945 502.323 245.079 500.728 243.18 499.184H321.373Z" fill="#F50000"/>
<path opacity="0.1" d="M321.375 533.422V544.681H314.589C306.963 541.236 299.487 537.477 292.161 533.405L321.375 533.422Z" fill="#F50000"/>
<path opacity="0.1" d="M480.201 361.339H464.024V377.544H480.201V361.339Z" fill="#F50000"/>
<path opacity="0.1" d="M129.942 285.836H113.766V302.041H129.942V285.836Z" fill="#F50000"/>
<path opacity="0.1" d="M129.942 323.476H113.766V339.681H129.942V323.476Z" fill="#F50000"/>
<path opacity="0.1" d="M129.942 361.117H113.766V377.322H129.942V361.117Z" fill="#F50000"/>
<path opacity="0.1" d="M129.942 398.752H113.766V414.957H129.942V398.752Z" fill="#F50000"/>
<path opacity="0.1" d="M129.942 436.392H113.766V452.597H129.942V436.392Z" fill="#F50000"/>
<path opacity="0.1" d="M129.942 474.033H113.766V490.238H129.942V474.033Z" fill="#F50000"/>
<path opacity="0.1" d="M541.954 361.339H525.777V377.544H541.954V361.339Z" fill="#F50000"/>
<path opacity="0.1" d="M480.201 401.31H464.024V417.515H480.201V401.31Z" fill="#F50000"/>
<path opacity="0.1" d="M541.954 401.31H525.777V417.515H541.954V401.31Z" fill="#F50000"/>
<path opacity="0.1" d="M480.201 441.275H464.024V457.48H480.201V441.275Z" fill="#F50000"/>
<path opacity="0.1" d="M541.954 441.275H525.777V457.48H541.954V441.275Z" fill="#F50000"/>
<path opacity="0.1" d="M480.201 481.246H464.024V497.451H480.201V481.246Z" fill="#F50000"/>
<path opacity="0.1" d="M541.954 481.246H525.777V497.451H541.954V481.246Z" fill="#F50000"/>
<path opacity="0.1" d="M480.201 521.218H464.024V537.422H480.201V521.218Z" fill="#F50000"/>
<path opacity="0.1" d="M541.954 521.218H525.777V537.422H541.954V521.218Z" fill="#F50000"/>
<path opacity="0.1" d="M464.024 571.633V561.183H480.195V570.146L464.024 571.633Z" fill="#F50000"/>
<path opacity="0.1" d="M32.9707 331.009V340.28H88.3323V331.009H32.9707ZM38.4881 339.698H33.9718V331.579H38.5222L38.4881 339.698ZM43.9998 339.698H39.4494V331.579H43.9998V339.698ZM49.5001 339.698H44.9497V331.579H49.5001V339.698ZM55.0118 339.698H50.4671V331.579H55.0175L55.0118 339.698ZM60.5179 339.698H55.9674V331.579H60.5179V339.698ZM66.0296 339.698H61.4791V331.579H66.0296V339.698ZM71.5413 339.698H66.9908V331.579H71.5413V339.698ZM77.0473 339.698H72.4969V331.579H77.0473V339.698ZM82.5533 339.698H78.0029V331.579H82.5533V339.698ZM88.0593 339.698H83.5089V331.579H88.0593V339.698Z" fill="#F50000"/>
<path opacity="0.1" d="M32.9707 357.983V367.254H88.3323V357.983H32.9707ZM38.4881 366.667H33.9718V358.57H38.5222L38.4881 366.667ZM43.9998 366.667H39.4494V358.57H43.9998V366.667ZM49.5001 366.667H44.9497V358.57H49.5001V366.667ZM55.0118 366.667H50.4671V358.57H55.0175L55.0118 366.667ZM60.5179 366.667H55.9674V358.57H60.5179V366.667ZM66.0296 366.667H61.4791V358.57H66.0296V366.667ZM71.5413 366.667H66.9908V358.57H71.5413V366.667ZM77.0473 366.667H72.4969V358.57H77.0473V366.667ZM82.5533 366.667H78.0029V358.57H82.5533V366.667ZM88.0593 366.667H83.5089V358.57H88.0593V366.667Z" fill="#F50000"/>
<path opacity="0.1" d="M32.9707 384.968V394.256H88.3323V384.968H32.9707ZM38.4881 393.652H33.9718V385.549H38.5222L38.4881 393.652ZM43.9998 393.652H39.4494V385.549H43.9998V393.652ZM49.5001 393.652H44.9497V385.549H49.5001V393.652ZM55.0118 393.652H50.4671V385.549H55.0175L55.0118 393.652ZM60.5179 393.652H55.9674V385.549H60.5179V393.652ZM66.0296 393.652H61.4791V385.549H66.0296V393.652ZM71.5413 393.652H66.9908V385.549H71.5413V393.652ZM77.0473 393.652H72.4969V385.549H77.0473V393.652ZM82.5533 393.652H78.0029V385.549H82.5533V393.652ZM88.0593 393.652H83.5089V385.549H88.0593V393.652Z" fill="#F50000"/>
<path opacity="0.1" d="M32.9707 411.954V421.213H88.3323V411.954H32.9707ZM38.4881 420.638H33.9718V412.529H38.5222L38.4881 420.638ZM43.9998 420.638H39.4494V412.529H43.9998V420.638ZM49.5001 420.638H44.9497V412.529H49.5001V420.638ZM55.0118 420.638H50.4671V412.529H55.0175L55.0118 420.638ZM60.5179 420.638H55.9674V412.529H60.5179V420.638ZM66.0296 420.638H61.4791V412.529H66.0296V420.638ZM71.5413 420.638H66.9908V412.529H71.5413V420.638ZM77.0473 420.638H72.4969V412.529H77.0473V420.638ZM82.5533 420.638H78.0029V412.529H82.5533V420.638ZM88.0593 420.638H83.5089V412.529H88.0593V420.638Z" fill="#F50000"/>
<path opacity="0.1" d="M33.208 438.934C33.4298 439.805 33.6801 440.677 33.9418 441.538V439.515H38.4922V447.617H36.0577C36.1317 447.805 36.2056 448.01 36.2795 448.187H88.3307V438.934H33.208ZM44.0153 447.617H39.4648V439.515H44.0153V447.617ZM49.5156 447.617H44.9652V439.515H49.5156V447.617ZM55.0273 447.617H50.4655V439.515H55.0159L55.0273 447.617ZM60.5333 447.617H55.9829V439.515H60.5333V447.617ZM66.045 447.617H61.4946V439.515H66.045V447.617ZM71.5567 447.617H67.0063V439.515H71.5567V447.617ZM77.0627 447.617H72.5123V439.515H77.0627V447.617ZM82.5688 447.617H78.0183V439.515H82.5688V447.617ZM88.0748 447.617H83.5243V439.515H88.0748V447.617Z" fill="#F50000"/>
<path opacity="0.1" d="M46.0635 465.919C46.2057 466.102 46.3422 466.307 46.4901 466.489H49.4991V470.381C49.8233 470.768 50.1418 471.156 50.4717 471.52V466.466H55.0221V474.597H53.1792C53.3612 474.785 53.5376 474.985 53.748 475.167H88.3483V465.919H46.0635ZM60.5168 474.597H55.9663V466.5H60.5168V474.597ZM66.0285 474.597H61.4781V466.5H66.0285V474.597ZM71.5402 474.597H66.9898V466.5H71.5402V474.597ZM77.0462 474.597H72.4958V466.5H77.0462V474.597ZM82.5522 474.597H78.0018V466.5H82.5522V474.597ZM88.0582 474.597H83.5078V466.5H88.0582V474.597Z" fill="#F50000"/>
<path opacity="0.1" d="M76.4316 492.898C76.9493 493.195 77.4782 493.468 78.0129 493.765V493.48H82.5633V496.044L83.5303 496.494V493.48H88.0807V498.408C88.168 498.452 88.2595 498.486 88.3538 498.511V492.898H76.4316Z" fill="#F50000"/>
<path opacity="0.1" d="M451.88 351.265H451.915H451.88ZM416.842 519.434H417.411H416.842ZM380.285 433.868C380.393 434.233 380.484 434.597 380.587 434.956C380.496 434.597 380.399 434.233 380.285 433.868ZM451.88 351.248H451.915H451.88ZM108.323 265.927V268.36H133.732V265.927H108.323ZM416.842 519.434H417.411H416.842ZM380.285 433.868C380.393 434.233 380.484 434.597 380.587 434.956C380.496 434.597 380.399 434.233 380.285 433.868ZM451.88 351.248H451.915H451.88ZM416.842 519.417H417.411H416.842ZM380.285 433.868C380.393 434.233 380.484 434.597 380.587 434.956C380.496 434.597 380.399 434.233 380.285 433.868Z" fill="#F50000"/>
<path d="M285.288 377.333C285.288 377.333 283.047 377.02 283.047 373.749C283.047 370.479 281.443 364.371 281.443 364.371C281.443 364.342 280.055 353.733 278.138 352.046C276.221 350.359 273.758 340.456 273.758 340.456C273.758 340.456 273.338 335.083 272.479 333.926C271.62 332.77 270.459 329.938 268.747 325.898C267.035 321.858 259.897 319.061 259.897 319.061C259.897 319.061 246.991 311.562 243.333 309.118C243.001 308.917 242.69 308.682 242.406 308.417C241.769 307.579 238.993 307.562 238.993 307.562C238.703 305.727 238.424 303.619 238.333 301.71C238.333 301.505 238.333 301.3 238.305 301.095C242.383 298.68 245.455 294.873 246.956 290.372C247.025 290.155 247.082 289.927 247.144 289.711C247.388 289.63 247.613 289.499 247.804 289.326C247.995 289.154 248.148 288.943 248.253 288.708C248.583 287.973 248.589 287.112 248.998 286.429C249.476 285.619 250.386 285.186 251.103 284.577C252.912 283.038 253.378 280.446 253.293 278.087C253.236 276.178 252.929 274.252 253.048 272.355L253.082 271.876C253.117 271.591 253.156 271.306 253.208 271.033C253.486 269.62 254.095 268.286 254.436 266.885C254.777 265.483 254.812 263.905 254.015 262.697C252.849 260.925 250.42 260.571 248.287 260.389C245.87 260.184 243.709 260.452 242.161 258.44C241.437 257.389 240.623 256.403 239.727 255.494C239.408 255.198 236.314 253.306 236.314 253.181C233.294 251.78 229.871 251.517 226.673 252.44C225.069 252.908 223.556 253.671 221.929 254.053C218.42 254.885 214.381 253.985 211.401 255.996C209.74 257.135 208.744 258.947 207.811 260.714C207.053 262.169 206.283 263.622 205.502 265.073C204.245 267.46 202.965 269.887 202.436 272.531C202.325 273.107 202.257 273.689 202.231 274.275V274.303C202.231 274.514 202.231 274.725 202.231 274.936V275.204C202.231 275.403 202.231 275.597 202.266 275.773C202.3 275.95 202.294 276.007 202.311 276.127C202.328 276.246 202.357 276.514 202.391 276.696C202.425 276.879 202.493 277.198 202.561 277.449C202.59 277.557 202.63 277.659 202.664 277.762C202.721 277.956 202.789 278.144 202.863 278.332C202.903 278.429 202.942 278.531 202.988 278.628C203.073 278.827 203.176 279.021 203.278 279.198C203.324 279.278 203.358 279.352 203.403 279.426C203.562 279.691 203.737 279.946 203.926 280.189C205.144 281.711 206.935 282.679 208.261 284.104C208.261 284.161 208.261 284.218 208.261 284.269C208.261 284.429 208.261 284.582 208.261 284.742C208.331 287.919 209.175 291.03 210.72 293.806C212.264 296.582 214.462 298.937 217.123 300.668C217.123 300.884 217.151 301.106 217.162 301.323C217.273 303.014 217.252 304.712 217.1 306.4C216.868 306.127 216.578 305.909 216.252 305.763C215.925 305.617 215.569 305.546 215.212 305.556C214.967 305.545 214.722 305.566 214.483 305.619L214.432 305.579V305.631C213.181 305.938 211.639 307.243 210.166 310.952C210.166 310.952 205.684 316.012 202.271 315.801C198.858 315.591 190.218 321.066 190.218 321.066C190.218 321.066 181.789 326.548 179.98 332.132C178.969 335.298 177.757 338.396 176.351 341.408L165.93 362.918L164.008 379.983C164.008 379.983 165.071 387.573 164.861 388.729C164.651 389.886 169.235 400.319 169.235 400.319C169.235 400.319 184.382 426.979 190.571 428.347L191.015 428.034C191.279 428.172 191.56 428.277 191.851 428.347L193.125 427.447C193.201 428.45 193.169 429.459 193.028 430.455C192.175 433.088 193.347 450.267 194.837 453.634C196.327 457.002 195.798 501.155 195.798 501.155L195.588 505.053C195.588 505.053 195.588 505.178 195.639 505.394L195.588 506.317L195.741 506.397C195.901 507.633 195.849 508.888 195.588 510.107C195.053 511.816 194.837 516.648 194.837 516.648C194.837 516.648 190.577 543.93 192.596 549.411C194.615 554.892 196.333 560.898 196.333 560.898C196.333 560.898 198.466 567.735 196.435 568.904C194.405 570.072 188.631 572.032 189.82 574.881C190.901 577.513 195.002 584.567 195.611 585.598L195.559 586.14L194.723 595.217C194.859 596.415 195.183 597.584 195.684 598.681C196.6 600.658 198.381 602.709 201.765 602.487C202.334 602.447 202.994 602.379 203.631 602.293C209.825 601.462 217.453 598.692 217.453 598.692C217.057 598.44 216.694 598.14 216.372 597.798C216.067 597.502 215.826 597.148 215.663 596.756C215.5 596.364 215.418 595.943 215.422 595.519C215.513 593.866 212.424 585.992 211.656 584.054C211.537 583.775 211.474 583.616 211.474 583.616C211.474 583.616 218.516 576.242 217.345 569.707C217.345 569.707 209.552 565.149 212.117 562.647C214.683 560.146 219.267 552.961 219.267 552.961C219.267 552.961 219.478 526.095 219.267 522.084C219.048 519.299 219.179 516.499 219.66 513.748C219.745 513.332 219.847 512.927 219.955 512.528C223.503 513.059 227.085 513.331 230.672 513.343C231.98 513.343 233.311 513.343 234.653 513.263C234.653 513.643 234.67 514.053 234.704 514.494C235 521.149 235.552 532.819 236.001 537.155C236.638 543.371 240.159 560.123 240.159 560.123C240.159 560.123 233.442 564.442 241.331 575.086C241.331 575.086 241.331 578.943 240.808 579.502C240.249 581.327 239.799 583.184 239.46 585.063C239.13 587.069 238.993 589.097 239.528 590.151C240.808 592.67 248.487 592.464 248.487 592.464L248.674 592.43C250.124 592.28 251.589 592.42 252.984 592.842C254.38 593.263 255.677 593.958 256.802 594.886C259.72 597.234 270.795 596.202 276.79 595.456C279.139 595.16 280.709 594.886 280.709 594.886C280.785 594.62 280.812 594.342 280.789 594.066C280.726 592.59 279.572 589.353 271.745 586.465C271.745 586.465 264.385 581.507 264.487 577.188H264.333H263.48C264.1 577.154 264.498 577.188 264.498 577.188C264.498 577.188 261.614 566.647 262.792 565.792C263.969 564.938 260.443 553.257 260.443 553.257C260.443 553.257 258.424 533.656 258.315 532.283C258.32 531.105 258.498 529.933 258.844 528.807L258.315 518.061C258.315 518.061 258.213 514.488 258.315 513.326C258.298 512.317 258.216 511.31 258.071 510.312C258.02 509.913 257.968 509.497 257.912 509.087C260.67 508.386 262.462 507.736 262.462 507.736L262.143 470.329C264.487 465.771 264.919 455.771 264.908 448.677C264.908 444.119 264.703 440.746 264.703 440.746L267.905 435.509C267.905 435.509 268.645 429.242 267.473 427.868C266.956 427.247 267.189 426.603 267.615 426.073C267.837 425.897 268.071 425.738 268.315 425.595C268.315 425.595 268.281 425.544 268.241 425.469C268.465 425.282 268.702 425.113 268.952 424.962C268.952 424.962 267.814 423.196 268.833 422.45C269.788 423.099 270.641 423.589 271.29 423.988C271.244 424.404 271.199 424.643 271.199 424.643L271.472 424.073C272.098 424.427 272.479 424.643 272.479 424.643C272.479 424.643 277.495 414.632 277.387 413.156C277.279 411.68 280.8 405.464 280.8 405.464C280.8 405.464 281.227 402.199 283.149 400.832C285.072 399.464 284.64 389.555 284.64 389.555C284.64 389.555 285.174 384.393 286.454 382.285C287.734 380.177 285.288 377.333 285.288 377.333ZM189.297 372.94L189.394 375.328C188.825 374.41 188.415 373.749 188.415 373.749L189.297 372.94Z" fill="url(#paint0_linear)"/>
<path d="M272.754 420.319L271.525 425.561C271.525 425.561 261.685 420.529 259.91 414.136C258.135 407.743 262.879 405.316 262.879 405.316L272.048 409.208L272.754 420.319Z" fill="white"/>
<path opacity="0.1" d="M272.754 420.319L271.525 425.561C271.525 425.561 261.685 420.529 259.91 414.136C258.135 407.743 262.879 405.316 262.879 405.316L272.048 409.208L272.754 420.319Z" fill="black"/>
<path d="M217.528 598.726C217.528 598.726 208.427 602.077 202.17 602.498C198.848 602.721 197.102 600.681 196.203 598.715C195.712 597.622 195.396 596.459 195.265 595.268L196.078 586.236L196.51 581.427L209.803 577.969L211.686 583.735L211.862 584.174C212.619 586.1 215.651 593.934 215.56 595.57C215.556 595.988 215.637 596.404 215.797 596.79C215.957 597.177 216.194 597.527 216.492 597.82C216.798 598.165 217.146 598.47 217.528 598.726Z" fill="white"/>
<path d="M279.694 594.134C279.717 594.408 279.69 594.684 279.614 594.948C279.614 594.948 260.15 598.202 256.168 594.948C255.046 593.998 253.737 593.293 252.327 592.879C250.916 592.465 249.435 592.351 247.978 592.544C247.978 592.544 240.447 592.749 239.19 590.265C238.666 589.222 238.803 587.199 239.127 585.205C239.458 583.336 239.898 581.489 240.447 579.672L240.748 579.433L242.54 577.991L263.517 577.37H263.676C263.574 581.667 270.798 586.595 270.798 586.595C278.471 589.444 279.603 592.664 279.694 594.134Z" fill="white"/>
<path opacity="0.1" d="M279.692 594.134C279.712 594.409 279.683 594.684 279.607 594.949C279.607 594.949 260.148 598.202 256.166 594.949C255.044 593.999 253.737 593.295 252.327 592.881C250.918 592.466 249.437 592.352 247.981 592.544C247.981 592.544 240.445 592.749 239.193 590.265C238.67 589.217 238.801 587.2 239.125 585.205C242.026 585.496 246.605 586.22 248.402 587.946C251.121 590.573 255.728 593.194 258.555 593.399C260.768 593.541 274.004 593.963 279.692 594.134Z" fill="black"/>
<path opacity="0.1" d="M217.528 598.726C217.528 598.726 208.427 602.077 202.17 602.498C198.848 602.721 197.102 600.681 196.209 598.709C198.524 599.49 201.738 600.31 203.427 599.558C205.429 598.669 212.528 598.094 216.51 597.849C216.813 598.181 217.154 598.476 217.528 598.726Z" fill="black"/>
<path d="M231.03 328.73C223.522 325.807 213.864 316.149 216.275 311.636C216.811 310.497 217.129 309.268 217.214 308.012C217.369 306.307 217.392 304.593 217.282 302.884C217.113 300.086 216.777 297.3 216.275 294.542C216.275 294.542 239.716 295.072 238.351 298.531C237.953 299.545 237.89 301.306 237.998 303.277C238.106 305.249 238.391 307.477 238.686 309.363C239.096 311.949 239.505 313.921 239.505 313.921C239.505 313.921 238.072 315.932 237.23 316.041C236.388 316.149 241.803 332.895 231.03 328.73Z" fill="#CF6F80"/>
<path opacity="0.1" d="M211.843 584.174L211.667 584.368C204.659 575.878 196.184 586.459 196.184 586.459L196.059 586.236L196.491 581.427L209.784 577.969L211.667 583.735L211.843 584.174Z" fill="black"/>
<path opacity="0.1" d="M263.68 577.969C263.68 577.969 258.561 577.86 255.831 580.276C253.1 582.692 239.904 580.801 240.473 580.276C240.641 580.017 240.743 579.719 240.769 579.41L242.56 577.969L263.538 577.348C263.618 577.729 263.68 577.969 263.68 577.969Z" fill="black"/>
<path d="M220.569 511.298C220.188 512.242 219.898 513.221 219.704 514.221C219.23 516.959 219.098 519.746 219.312 522.517C219.522 526.505 219.312 553.234 219.312 553.234C219.312 553.234 214.813 560.363 212.304 562.875C209.796 565.388 217.423 569.901 217.423 569.901C218.561 576.397 211.667 583.735 211.667 583.735C204.66 575.246 196.184 585.832 196.184 585.832C196.184 585.832 191.577 577.855 190.428 575.006C189.279 572.157 194.927 570.186 196.912 569.029C198.898 567.872 196.816 561.052 196.816 561.052C196.816 561.052 195.138 555.075 193.147 549.622C191.156 544.169 195.343 517.024 195.343 517.024C195.343 517.024 195.559 512.204 196.076 510.523C196.337 509.31 196.389 508.061 196.23 506.83C196.196 506.415 196.156 506.067 196.127 505.833C196.099 505.6 196.076 505.491 196.076 505.491L196.156 505.355L199 500.044C199 500.044 221.934 507.953 220.569 511.298Z" fill="#7DABFA"/>
<path d="M263.684 577.342C263.684 577.342 258.564 577.234 255.834 579.621C253.104 582.008 239.908 580.145 240.476 579.621C241.045 579.097 241 575.217 241 575.217C233.258 564.63 239.862 560.333 239.862 560.333C239.862 560.333 236.404 543.667 235.778 537.485C235.34 533.166 234.8 521.559 234.51 514.932C234.384 512.083 234.311 510.123 234.311 510.123L240.636 508.847L241.449 508.682L256.704 505.616C256.704 505.616 257.125 508.465 257.41 510.796C257.551 511.791 257.631 512.794 257.649 513.798C257.546 514.938 257.649 518.505 257.649 518.505L258.166 529.2C257.828 530.322 257.654 531.487 257.649 532.659C257.751 534.02 259.736 553.519 259.736 553.519C259.736 553.519 263.189 565.154 262.011 565.992C260.834 566.829 263.684 577.342 263.684 577.342Z" fill="#7DABFA"/>
<path opacity="0.1" d="M238.352 298.531C237.953 299.545 237.891 301.306 237.999 303.277C234.859 305.171 231.25 306.14 227.585 306.071C223.921 306.002 220.35 304.9 217.283 302.89C217.114 300.09 216.778 297.302 216.276 294.542C216.276 294.542 239.717 295.061 238.352 298.531Z" fill="black"/>
<path d="M247.415 285.938C247.42 287.992 247.097 290.032 246.46 291.984C245.035 296.356 242.113 300.083 238.21 302.506C234.307 304.929 229.675 305.892 225.132 305.224C220.589 304.557 216.428 302.302 213.384 298.858C210.34 295.414 208.609 291.004 208.498 286.406C208.498 286.246 208.498 286.098 208.498 285.938C208.454 283.35 208.925 280.779 209.883 278.375C210.841 275.971 212.267 273.782 214.079 271.936C215.891 270.09 218.051 268.624 220.434 267.623C222.817 266.622 225.375 266.107 227.96 266.107C230.544 266.107 233.102 266.622 235.485 267.623C237.868 268.624 240.029 270.09 241.84 271.936C243.652 273.782 245.078 275.971 246.036 278.375C246.995 280.779 247.465 283.35 247.421 285.938H247.415Z" fill="#CF6F80"/>
<path opacity="0.1" d="M231.03 328.73C223.522 325.807 213.864 316.149 216.275 311.636C216.811 310.497 217.129 309.268 217.214 308.012L227.492 316.473L233.851 321.698L238.686 309.368C239.096 311.955 239.505 313.926 239.505 313.926C239.505 313.926 238.072 315.938 237.23 316.046C236.388 316.154 241.803 332.895 231.03 328.73Z" fill="black"/>
<path d="M257.614 366.125L249.031 510.568L237.837 511.303L208.851 427.549L213.606 328.114L214.607 307.106L227.496 317.71L233.861 322.935L238.838 310.246L248.092 318.325L257.614 366.125Z" fill="#7DABFA"/>
<path opacity="0.1" d="M220.568 511.297C220.187 512.242 219.897 513.221 219.703 514.22C211.558 512.961 203.647 510.485 196.235 506.876L196.081 506.796L196.132 505.879L196.161 505.4L199.005 500.09C199.005 500.09 221.933 507.953 220.568 511.297Z" fill="black"/>
<path opacity="0.1" d="M240.765 514.243C238.683 514.598 236.583 514.837 234.474 514.961C234.349 512.112 234.275 510.152 234.275 510.152L240.6 508.875L240.765 514.243Z" fill="black"/>
<path opacity="0.1" d="M257.375 510.824C253.331 511.879 247.085 513.064 241.494 512.323L241.414 508.711L256.669 505.645C256.669 505.645 257.09 508.466 257.375 510.824Z" fill="black"/>
<path opacity="0.1" d="M241.39 512.984C218.069 516.972 196.71 505.536 196.71 505.536L196.915 501.662C196.915 501.662 197.444 457.737 195.976 454.369C194.509 451.002 193.366 433.925 194.196 431.304C195.027 428.683 191.164 389.378 191.164 389.378L190.539 373.424L167.639 364.131L177.877 342.752C179.26 339.755 180.449 336.672 181.438 333.522C183.218 327.972 191.483 322.519 191.483 322.519C191.483 322.519 199.958 317.072 203.308 317.277C206.659 317.482 211.05 312.456 211.05 312.456C214.292 304.177 217.227 307.926 217.227 307.926C217.227 308.32 217.227 307.926 217.068 309.152C215.93 318.24 235.463 346.957 235.742 347.464L237.601 392.854L239.484 450.295L241.39 512.984Z" fill="black"/>
<path d="M240.763 512.984C217.442 516.972 196.078 505.537 196.078 505.537L196.288 501.662C196.288 501.662 196.817 457.737 195.344 454.369C193.871 451.002 192.733 433.925 193.57 431.304C194.406 428.683 190.538 389.379 190.538 389.379L189.907 373.424L166.995 364.097L177.234 342.718C178.613 339.72 179.803 336.637 180.794 333.488C182.569 327.938 190.839 322.485 190.839 322.485C190.839 322.485 199.315 317.038 202.659 317.243C206.004 317.448 210.4 312.422 210.4 312.422C213.648 304.143 217.226 307.893 217.226 307.893C217.226 308.286 216.885 308.462 217.067 309.118C219.57 317.932 234.836 346.923 235.115 347.43L236.998 392.82L238.88 450.261L240.763 512.984Z" fill="white"/>
<path opacity="0.1" d="M234.479 348.724C231.97 347.676 218.683 332.479 218.683 332.479V329.02C218.2 327.881 215.327 328.576 212.995 329.374L213.996 308.365L215.134 309.311C217.625 318.12 234.189 348.217 234.479 348.724Z" fill="black"/>
<path d="M235.11 347.464C232.596 346.416 219.309 331.22 219.309 331.22V327.761C218.826 326.621 215.953 327.317 213.621 328.114L214.628 307.106L215.765 308.052C218.263 316.861 234.832 346.963 235.11 347.464Z" fill="white"/>
<path opacity="0.1" d="M196.711 423.253C197.024 423.253 212.928 421.577 212.928 421.577C212.928 421.577 222.558 440.546 221.926 445.161C221.295 449.776 220.152 453.862 216.278 453.138C212.405 452.415 195.432 453.708 195.432 453.708L196.711 423.253Z" fill="black"/>
<path d="M196.08 421.994C196.392 421.994 212.296 420.319 212.296 420.319C212.296 420.319 221.92 439.293 221.295 443.902C220.669 448.512 219.514 452.603 215.646 451.879C211.779 451.156 194.8 452.449 194.8 452.449L196.08 421.994Z" fill="white"/>
<path d="M208.065 413.088C208.065 413.088 222.661 420.945 222.974 423.344C223.286 425.743 215.545 422.296 213.873 421.88C212.772 421.614 211.652 421.439 210.522 421.356L199.368 421.658L208.065 413.088Z" fill="#CF6F80"/>
<path opacity="0.1" d="M230.405 349.704C231.253 349.704 231.941 349.015 231.941 348.165C231.941 347.316 231.253 346.627 230.405 346.627C229.557 346.627 228.869 347.316 228.869 348.165C228.869 349.015 229.557 349.704 230.405 349.704Z" fill="black"/>
<path d="M230.405 349.077C231.253 349.077 231.941 348.388 231.941 347.539C231.941 346.689 231.253 346 230.405 346C229.557 346 228.869 346.689 228.869 347.539C228.869 348.388 229.557 349.077 230.405 349.077Z" fill="#3F3D56"/>
<path opacity="0.1" d="M233.233 416.301C234.081 416.301 234.769 415.613 234.769 414.763C234.769 413.913 234.081 413.225 233.233 413.225C232.385 413.225 231.697 413.913 231.697 414.763C231.697 415.613 232.385 416.301 233.233 416.301Z" fill="black"/>
<path d="M233.233 415.669C234.081 415.669 234.769 414.98 234.769 414.13C234.769 413.281 234.081 412.592 233.233 412.592C232.385 412.592 231.697 413.281 231.697 414.13C231.697 414.98 232.385 415.669 233.233 415.669Z" fill="#3F3D56"/>
<path opacity="0.1" d="M231.938 383.003C232.786 383.003 233.474 382.314 233.474 381.464C233.474 380.615 232.786 379.926 231.938 379.926C231.09 379.926 230.402 380.615 230.402 381.464C230.402 382.314 231.09 383.003 231.938 383.003Z" fill="black"/>
<path d="M231.938 382.375C232.786 382.375 233.474 381.687 233.474 380.837C233.474 379.987 232.786 379.299 231.938 379.299C231.09 379.299 230.402 379.987 230.402 380.837C230.402 381.687 231.09 382.375 231.938 382.375Z" fill="#3F3D56"/>
<path d="M267.341 421.036C267.341 421.036 268.388 422.609 267.341 423.344C266.294 424.079 267.443 425.857 267.443 425.857C267.443 425.857 264.832 427.39 265.981 428.769C267.13 430.147 266.402 436.375 266.402 436.375L263.263 441.583C263.263 441.583 263.45 444.939 263.462 449.475C263.462 456.552 263.046 466.5 260.748 471.036L261.067 508.249C261.067 508.249 250.072 512.272 240.869 511.047L239.504 451.332C239.504 451.332 241.494 417.47 242.228 410.974C242.658 407.602 242.833 404.202 242.752 400.803C242.752 400.803 242.439 390.638 241.386 385.92C241.386 385.92 240.249 365.482 240.135 359.824C240.084 357.117 240.226 349.22 240.385 341.71C240.562 333.499 240.761 325.756 240.761 325.756L238.685 309.3C238.685 309.3 240.761 309.089 241.386 309.927C241.667 310.189 241.971 310.424 242.296 310.628C245.88 313.055 258.542 320.519 258.542 320.519C258.542 320.519 265.549 323.311 267.227 327.311C268.905 331.311 270.071 334.149 270.885 335.288C271.698 336.428 272.142 341.784 272.142 341.784C272.142 341.784 274.553 351.641 276.436 353.311C278.319 354.98 279.695 365.601 279.695 365.601L263.058 378.707C263.058 378.707 261.596 400.507 261.283 401.35C260.97 402.193 267.341 421.036 267.341 421.036Z" fill="white"/>
<path d="M267.971 421.036C267.971 421.036 269.012 422.609 267.971 423.344C266.93 424.079 268.068 425.857 268.068 425.857C268.068 425.857 265.474 427.407 266.612 428.785C267.749 430.164 267.033 436.392 267.033 436.392L263.893 441.6C263.893 441.6 264.08 444.956 264.097 449.492C264.097 456.569 263.682 466.517 261.384 471.053L261.697 508.266C261.697 508.266 250.685 512.289 241.493 511.064L240.134 451.349C240.134 451.349 242.125 417.486 242.858 410.991C243.288 407.619 243.461 404.219 243.376 400.82C243.376 400.82 243.063 390.655 242.017 385.937C242.017 385.937 240.879 365.499 240.76 359.841C240.708 357.134 240.856 349.237 241.01 341.727C241.186 333.516 241.385 325.773 241.385 325.773L238.644 309.095C238.644 309.095 241.385 309.095 242.017 309.944C242.294 310.209 242.599 310.444 242.927 310.645C246.51 313.072 259.177 320.536 259.177 320.536C259.177 320.536 266.179 323.328 267.857 327.328C269.535 331.328 270.701 334.166 271.52 335.305C272.339 336.445 272.772 341.801 272.772 341.801C272.772 341.801 275.183 351.658 277.066 353.328C278.949 354.997 280.308 365.595 280.308 365.595L263.671 378.701C263.671 378.701 262.209 400.501 261.891 401.344C261.572 402.188 267.971 421.036 267.971 421.036Z" fill="white"/>
<path opacity="0.1" d="M248.046 330.61L249.548 334.997L241.642 342.975C241.818 334.77 242.017 327.02 242.017 327.02L239.275 310.343C239.275 310.343 242.017 310.343 242.648 311.192C242.925 311.456 243.23 311.689 243.559 311.887L250.282 331.317L248.046 330.61Z" fill="black"/>
<path d="M247.414 329.351L248.922 333.738L241.015 341.715C241.192 333.505 241.391 325.761 241.391 325.761L238.644 309.083C238.644 309.083 241.391 309.083 242.017 309.932C242.296 310.196 242.6 310.431 242.927 310.633L249.656 330.057L247.414 329.351Z" fill="white"/>
<path opacity="0.1" d="M247.415 285.938C247.42 287.992 247.097 290.032 246.46 291.984C246.352 292.001 246.243 291.996 246.137 291.969C246.032 291.943 245.932 291.895 245.846 291.83C245.698 286.702 243.178 281.887 240.078 277.79C239.208 276.553 238.152 275.458 236.949 274.542C235.733 273.627 234.221 273.199 232.706 273.34C231 273.574 229.492 274.736 227.769 274.884C225.494 275.072 223.457 273.494 221.199 273.414C220.281 273.423 219.376 273.628 218.543 274.015C217.71 274.402 216.97 274.963 216.37 275.659C215.184 277.065 214.303 278.703 213.782 280.468C212.888 283.145 212.401 285.942 212.337 288.765C212.309 290.36 212.155 292.36 210.676 292.941C210.788 291.768 210.655 290.584 210.286 289.465C209.916 288.346 209.319 287.316 208.532 286.44L208.498 286.406C208.498 286.246 208.498 286.098 208.498 285.938C208.454 283.35 208.925 280.779 209.883 278.375C210.841 275.971 212.267 273.782 214.079 271.936C215.891 270.09 218.051 268.624 220.434 267.623C222.817 266.622 225.375 266.107 227.96 266.107C230.544 266.107 233.102 266.622 235.485 267.623C237.868 268.624 240.029 270.09 241.84 271.936C243.652 273.782 245.078 275.971 246.036 278.375C246.995 280.779 247.465 283.35 247.421 285.938H247.415Z" fill="black"/>
<path d="M236.016 254.981C233.061 253.589 229.699 253.325 226.563 254.241C224.987 254.708 223.503 255.466 221.904 255.848C218.491 256.674 214.51 255.779 211.58 257.779C209.954 258.919 208.975 260.719 208.065 262.469L205.79 266.81C204.55 269.186 203.299 271.602 202.781 274.218C202.263 276.833 202.576 279.762 204.232 281.864C205.437 283.397 207.218 284.36 208.526 285.802C209.31 286.678 209.904 287.708 210.272 288.826C210.64 289.943 210.774 291.125 210.665 292.297C212.149 291.727 212.291 289.722 212.326 288.126C212.389 285.304 212.876 282.507 213.77 279.83C214.29 278.064 215.171 276.426 216.358 275.021C216.958 274.325 217.699 273.765 218.532 273.378C219.364 272.991 220.27 272.786 221.188 272.776C223.463 272.856 225.505 274.428 227.757 274.24C229.464 274.098 230.977 272.93 232.694 272.702C234.209 272.558 235.723 272.987 236.938 273.904C238.14 274.818 239.194 275.914 240.06 277.152C243.166 281.249 245.686 286.052 245.834 291.192C246.477 291.665 247.404 291.049 247.722 290.32C248.041 289.591 248.052 288.736 248.456 288.041C248.922 287.237 249.815 286.81 250.515 286.206C252.29 284.673 252.733 282.092 252.665 279.75C252.597 277.409 252.142 275.032 252.585 272.731C252.853 271.317 253.456 269.995 253.786 268.6C254.116 267.204 254.155 265.637 253.376 264.434C252.239 262.668 249.844 262.32 247.756 262.155C245.384 261.95 243.263 262.212 241.75 260.212C241.04 259.168 240.24 258.189 239.361 257.283C239.059 256.987 236.016 255.107 236.016 254.981Z" fill="#512E4E"/>
<path opacity="0.1" d="M174.19 375.14L168.246 364.131L166.363 381.117C166.363 381.117 167.41 388.661 167.199 389.817C166.989 390.974 171.488 401.344 171.488 401.344C171.488 401.344 186.351 427.863 192.42 429.23L212.926 414.552L207.488 407.635C207.488 407.635 205.605 406.9 205.133 407.635C205.133 407.635 195.037 390.233 193.99 388.974C192.943 387.715 193.148 385.202 193.148 385.202C193.148 385.202 191.578 383.527 192.102 381.954C192.625 380.382 189.07 374.929 189.07 374.929L192.312 371.892L174.19 375.14Z" fill="black"/>
<path d="M168.562 362.878L166.992 364.131L165.109 381.117C165.109 381.117 166.156 388.661 165.946 389.817C165.735 390.974 170.24 401.344 170.24 401.344C170.24 401.344 185.097 427.863 191.166 429.23L211.677 414.552L206.234 407.635C206.234 407.635 204.351 406.9 203.879 407.635C203.879 407.635 193.783 390.233 192.736 388.974C191.69 387.715 191.9 385.202 191.9 385.202C191.9 385.202 190.33 383.527 190.853 381.954C191.377 380.382 187.816 374.929 187.816 374.929L191.058 371.892L168.562 362.878Z" fill="white"/>
<path opacity="0.1" d="M265.977 429.418C267.115 430.803 266.398 437.019 266.398 437.019L263.258 442.227C263.258 442.227 263.446 445.589 263.457 450.119L258.179 451.771C257.702 451.92 257.196 451.953 256.704 451.867C256.211 451.78 255.747 451.577 255.349 451.275C254.951 450.972 254.631 450.578 254.416 450.126C254.201 449.674 254.096 449.177 254.112 448.677L255.022 419.27L267.337 423.988C266.29 424.717 267.439 426.506 267.439 426.506C267.439 426.506 264.828 428.033 265.977 429.418Z" fill="black"/>
<path d="M266.609 428.786C267.746 430.17 267.03 436.392 267.03 436.392L263.89 441.6C263.89 441.6 264.077 444.956 264.095 449.492L258.719 451.173C258.252 451.318 257.757 451.35 257.275 451.265C256.793 451.18 256.339 450.981 255.949 450.684C255.56 450.388 255.247 450.002 255.036 449.56C254.825 449.118 254.723 448.631 254.738 448.141L255.653 418.643L267.974 423.361C266.921 424.091 268.07 425.874 268.07 425.874C268.07 425.874 265.471 427.407 266.609 428.786Z" fill="white"/>
<path d="M270.687 414.769C270.687 414.769 269.851 420.119 267.757 420.433C265.664 420.746 264.726 429.088 262.638 428.791C260.551 428.495 261.933 421.037 262.007 419.589C262.081 418.142 259.731 412.148 261.489 410.786C263.247 409.424 268.81 410.786 268.81 410.786L270.687 414.769Z" fill="#CF6F80"/>
<path opacity="0.1" d="M275.143 373.567L279.091 365.59C279.091 365.59 280.661 371.669 280.661 374.917C280.661 378.165 282.856 378.484 282.856 378.484C282.856 378.484 285.262 381.333 283.994 383.407C282.726 385.481 282.214 390.643 282.214 390.643C282.214 390.643 282.629 400.495 280.746 401.857C278.863 403.219 278.471 406.472 278.471 406.472C278.471 406.472 275.013 412.654 275.121 414.125C275.229 415.595 270.309 425.549 270.309 425.549C270.309 425.549 272.715 413.179 258.694 407.834C258.694 407.834 258.586 403.635 259.632 402.484C260.679 401.333 262.311 400.808 261.287 394.991C260.264 389.173 260.992 382.222 260.992 380.826C260.992 379.43 264.131 370.723 264.131 370.723L275.143 373.567Z" fill="black"/>
<path d="M276.85 364.45L280.297 365.59C280.297 365.59 281.873 371.669 281.873 374.917C281.873 378.165 284.068 378.484 284.068 378.484C284.068 378.484 286.474 381.333 285.206 383.407C283.937 385.481 283.431 390.644 283.431 390.644C283.431 390.644 283.846 400.495 281.964 401.857C280.081 403.219 279.66 406.472 279.66 406.472C279.66 406.472 276.207 412.655 276.315 414.125C276.423 415.595 271.498 425.549 271.498 425.549C271.498 425.549 273.909 413.179 259.883 407.834C259.883 407.834 259.78 403.635 260.827 402.484C261.873 401.333 263.506 400.809 262.482 394.991C261.458 389.174 262.186 382.222 262.186 380.826C262.186 379.43 265.326 370.724 265.326 370.724L276.85 364.45Z" fill="white"/>
<path opacity="0.1" d="M200.714 571.211C200.714 571.211 206.209 567.752 209.815 570.265C213.421 572.778 200.714 571.211 200.714 571.211Z" fill="black"/>
<path opacity="0.1" d="M243.409 560.516C243.409 560.516 248.272 559.889 252.356 564.294C256.44 568.698 243.409 560.516 243.409 560.516Z" fill="black"/>
<g opacity="0.1">
<path opacity="0.1" d="M250.525 284.959C249.825 285.563 248.926 285.996 248.46 286.799C248.062 287.488 248.05 288.337 247.732 289.078C247.413 289.819 246.486 290.423 245.843 289.956C245.695 284.828 243.17 280.013 240.07 275.91C239.203 274.672 238.15 273.577 236.947 272.662C235.73 271.746 234.215 271.317 232.698 271.46C230.992 271.694 229.49 272.856 227.767 272.999C225.491 273.192 223.449 271.614 221.191 271.534C220.274 271.543 219.369 271.749 218.537 272.137C217.705 272.525 216.965 273.087 216.368 273.785C215.18 275.188 214.299 276.824 213.78 278.588C212.886 281.266 212.399 284.062 212.335 286.885C212.301 288.474 212.153 290.457 210.686 291.05C210.72 291.471 210.72 291.894 210.686 292.315C212.164 291.745 212.312 289.739 212.346 288.144C212.41 285.321 212.897 282.525 213.791 279.848C214.31 278.082 215.192 276.444 216.379 275.039C216.978 274.343 217.718 273.782 218.549 273.395C219.381 273.008 220.286 272.803 221.203 272.794C223.478 272.873 225.526 274.446 227.778 274.258C229.484 274.115 230.998 272.947 232.71 272.719C234.226 272.576 235.741 273.005 236.959 273.922C238.161 274.836 239.215 275.931 240.081 277.17C243.181 281.266 245.707 286.07 245.855 291.209C246.497 291.682 247.425 291.067 247.743 290.337C248.062 289.608 248.073 288.753 248.471 288.058C248.938 287.255 249.836 286.828 250.536 286.224C252.311 284.691 252.754 282.11 252.686 279.768C252.686 279.694 252.686 279.62 252.686 279.551C252.578 281.58 252.038 283.648 250.525 284.959Z" fill="black"/>
<path opacity="0.1" d="M208.535 284.554C207.227 283.113 205.441 282.15 204.24 280.623C203.23 279.271 202.653 277.644 202.585 275.956C202.406 278.065 202.994 280.167 204.24 281.876C205.441 283.409 207.227 284.372 208.535 285.813C209.791 287.224 210.545 289.011 210.679 290.896C210.766 289.749 210.621 288.596 210.253 287.506C209.884 286.416 209.3 285.412 208.535 284.554Z" fill="black"/>
<path opacity="0.1" d="M253.795 267.352C253.459 268.748 252.862 270.076 252.589 271.483C252.427 272.424 252.368 273.379 252.413 274.332C252.432 273.789 252.491 273.248 252.589 272.714C252.862 271.301 253.459 269.979 253.795 268.583C253.991 267.813 254.054 267.015 253.983 266.224C253.947 266.604 253.885 266.981 253.795 267.352Z" fill="black"/>
</g>
<path opacity="0.1" d="M98.2289 594.379C128.839 594.379 153.653 590.387 153.653 585.462C153.653 580.537 128.839 576.544 98.2289 576.544C67.6189 576.544 42.8047 580.537 42.8047 585.462C42.8047 590.387 67.6189 594.379 98.2289 594.379Z" fill="#F50000"/>
<path d="M100.015 414.638H96.4482V495.075H100.015V414.638Z" fill="#535461"/>
<path d="M122.426 494.83L122.204 498.454L121.886 503.582L121.755 505.713L121.442 510.842L121.305 512.973L120.987 518.101L117.392 576.26C117.236 578.762 116.134 581.111 114.31 582.828C112.486 584.544 110.077 585.501 107.575 585.502H88.8836C86.3814 585.501 83.9736 584.544 82.1506 582.827C80.3276 581.11 79.2266 578.761 79.0718 576.26L75.494 518.061L75.1755 512.933L75.0446 510.802L74.7261 505.674L74.5953 503.543L74.2768 498.414L74.0492 494.791C74.0097 494.093 74.1129 493.395 74.3524 492.739C74.5919 492.083 74.9627 491.482 75.4421 490.975C75.9214 490.468 76.4992 490.064 77.14 489.788C77.7808 489.512 78.4711 489.371 79.1685 489.372H117.398C118.093 489.378 118.779 489.526 119.414 489.808C120.049 490.09 120.62 490.5 121.091 491.011C121.562 491.523 121.924 492.125 122.153 492.782C122.383 493.439 122.476 494.136 122.426 494.83Z" fill="#3F3D56"/>
<path d="M122.204 498.454L121.886 503.565H74.5724L74.2539 498.454H122.204Z" fill="#9D9CB5"/>
<path d="M121.754 505.696L121.441 510.813H75.0207L74.7021 505.696H121.754Z" fill="#9D9CB5"/>
<path d="M121.303 512.949L120.99 518.061H75.4689L75.1504 512.949H121.303Z" fill="#9D9CB5"/>
<path d="M68.8072 444.786C89.5742 459.84 98.2428 483.383 98.2428 483.383C98.2428 483.383 73.2155 482.523 52.4428 467.469C31.6701 452.415 23.0186 428.877 23.0186 428.877C23.0186 428.877 48.0345 429.732 68.8072 444.786Z" fill="#E75D52"/>
<path d="M23.001 428.877C23.001 428.877 48.9839 443.321 57.3169 455.281C65.6499 467.241 98.2423 483.383 98.2423 483.383" stroke="#535461" stroke-width="2" stroke-miterlimit="10"/>
<path d="M82.2179 414.461C93.5201 422.649 98.2468 435.463 98.2468 435.463C98.2468 435.463 84.624 434.996 73.3162 426.808C62.0083 418.62 57.293 405.8 57.293 405.8C57.293 405.8 70.9101 406.267 82.2179 414.461Z" fill="#E75D52"/>
<path d="M57.293 405.8C57.293 405.8 71.4334 413.663 75.9668 420.17C80.5001 426.677 98.2468 435.463 98.2468 435.463" stroke="#535461" stroke-width="2" stroke-miterlimit="10"/>
<path d="M114.654 434.814C101.668 449.11 98.9209 467.793 98.9209 467.793C98.9209 467.793 117.231 463.292 130.205 448.99C143.18 434.688 145.938 416.01 145.938 416.01C145.938 416.01 127.64 420.518 114.654 434.814Z" fill="#E75D52"/>
<path d="M145.95 416.016C145.95 416.016 129.033 430.671 124.733 440.768C120.433 450.865 98.9209 467.793 98.9209 467.793" stroke="#535461" stroke-width="2" stroke-miterlimit="10"/>
<path d="M591.347 429.783C591.347 429.783 581.956 382.98 585.551 377.156C585.551 377.156 585.682 371.743 585.465 364.843C585.465 364.581 585.465 364.319 585.465 364.051C586.098 364.474 586.757 364.854 587.439 365.191C590.751 366.895 594.554 367.387 598.19 366.581L595.346 363.407C594.663 362.65 593.952 361.829 593.804 360.826C593.656 359.823 594.066 358.929 594.418 358.034C597.12 351.197 597.262 342.598 592.058 337.379C587.661 332.992 586.592 327.328 581.819 323.322C578.333 320.388 576.416 316.086 574.607 311.927C573.077 308.411 571.535 304.867 570.659 301.14C569.977 298.229 569.704 295.214 568.765 292.371C567.827 289.528 566.069 286.764 563.322 285.494C562.344 285.044 561.257 284.787 560.364 284.189C559.192 283.397 558.487 282.109 557.64 280.981C553.334 275.283 538.915 278.639 532.089 280.953C530.233 281.535 528.515 282.489 527.038 283.756L527.101 283.653C527.152 283.568 527.214 283.482 527.271 283.397C526.524 284.002 525.879 284.724 525.36 285.534C524.365 287.112 523.949 288.952 523.119 290.662C522.118 292.685 516.549 298.331 518.944 300.605C519.112 300.757 519.304 300.881 519.513 300.969C520.412 301.344 521.401 301.443 522.357 301.254L522.254 301.499C521.436 303.505 521.017 305.652 521.02 307.818C521.02 317.18 528.727 324.77 538.243 324.77C540.032 324.771 541.811 324.497 543.516 323.955C543.556 324.171 543.59 324.388 543.63 324.604C543.63 324.69 543.658 324.775 543.67 324.861L543.368 325.282C543.353 325.256 543.336 325.232 543.317 325.208L534.387 337.71C533.022 338.673 525.161 344.371 524.717 348.644C524.251 353.322 523.784 358.798 523.784 358.798L523.722 359.971C523.332 360.298 522.875 360.536 522.384 360.669C521.893 360.802 521.379 360.826 520.878 360.741C518.091 360.285 518.091 370.997 518.091 370.997C518.091 370.997 516.236 372.706 514.962 371.225C513.688 369.743 510.321 374.763 510.321 374.763L489.218 375.675L488.735 375.703L487.597 372.176C487.475 371.804 487.211 371.496 486.862 371.318C486.514 371.139 486.11 371.106 485.737 371.225C485.649 371.254 485.563 371.29 485.481 371.333L485.402 371.379L485.254 371.481L485.18 371.55C485.139 371.587 485.101 371.627 485.066 371.669L484.998 371.749L484.964 371.783C484.832 371.965 484.745 372.175 484.71 372.397C484.674 372.619 484.691 372.846 484.759 373.06L485.737 376.085C481.664 376.906 477.501 379.219 480.897 385.589L463.685 382.404L469.253 387.088L498.001 393.031C497.619 393.715 497.87 394.706 499.058 396.102C504.178 402.125 513.506 403.76 517.26 404.182C518.252 406.403 519.49 408.506 520.952 410.449L520.628 416.449C520.628 416.449 511.123 462.181 509.382 464.5C510.261 463.503 511.065 462.442 511.788 461.326C509.03 470.722 505.173 483.582 504.161 485.508C502.534 488.585 501.027 501.035 502.881 501.833C503.45 502.078 505.076 501.958 507.397 501.782V502.813L507.295 541.895C507.295 541.895 507.761 565.866 506.481 568.151C505.202 570.436 504.86 575.228 504.86 575.228C504.86 575.228 499.741 584.681 495.685 588.481C495.658 588.511 495.627 588.538 495.594 588.561L495.469 587.672C495.469 587.672 490.595 593.837 479.81 593.49C479.81 593.49 473.32 597.718 482.944 597.946C492.568 598.174 504.86 597.604 504.86 597.604C504.86 597.604 513.444 584.499 520.633 586.208V596.139H522.834V586.048C523.855 585.375 524.729 584.501 525.403 583.48C526.076 582.458 526.536 581.31 526.754 580.105C526.942 578.864 526.804 577.594 526.353 576.422C525.902 575.25 525.154 574.216 524.183 573.422C523.746 573.027 523.396 572.545 523.154 572.008C522.912 571.47 522.784 570.889 522.778 570.299L522.698 570.368C522.698 570.168 522.647 569.963 522.624 569.752C521.993 564.624 521.202 554.043 523.995 546.214C527.823 535.479 528.983 520.528 526.196 511.628C525.297 508.783 524.558 505.889 523.983 502.961C523.915 502.591 523.853 502.237 523.796 501.907C525.701 502.165 527.588 502.546 529.444 503.047C535.9 504.83 550.023 505.161 562.082 505.064C562.11 505.394 562.145 505.742 562.184 506.089C562.399 508.505 562.849 510.895 563.527 513.223C565.04 517.781 565.734 537.878 565.734 537.878C565.734 537.878 567.685 554.402 566.621 561.126C566.052 564.863 565.483 568.618 565.159 572.39V572.465C565.159 572.465 561.962 581.581 559.625 586.533C559.568 586.658 559.505 586.783 559.448 586.903C558.825 586.96 558.212 587.096 557.622 587.308C557.622 587.308 554.488 593.575 551.366 594.612C548.243 595.649 549.278 599.062 556.348 597.809C563.419 596.555 574.095 595.53 574.095 595.53L574.556 589.137L576.729 586.413L576.16 592.789L578.475 592.333L578.168 584.578L581.723 580.123C581.723 580.123 586.017 576.294 579.635 568.761V568.926C579.567 568.818 579.504 568.704 579.43 568.596V568.561C578.372 566.92 577.531 563.861 579.072 558.431C581.859 548.619 583.48 539.713 583.48 539.713C583.48 539.713 589.703 515.856 582.223 504.568H582.553C581.787 502.98 581.245 501.292 580.943 499.554C580.906 499.349 580.871 499.138 580.841 498.921C586.375 498.602 591.808 497.599 596.239 495.434C596.222 495.411 593.554 438.797 591.347 429.783ZM521.083 390.296V390.41L519.945 390.467L521.083 390.296ZM517.181 390.837C516.994 390.879 516.818 390.963 516.669 391.082C516.18 391.775 515.872 392.581 515.776 393.424L514.001 393.025C514.001 393.025 512.755 392.757 510.964 392.455L510.116 391.601C512.448 391.407 514.871 391.122 517.181 390.837Z" fill="url(#paint1_linear)"/>
<path d="M575.897 584.658L575.22 592.732L577.489 592.276L577.148 583.519L575.897 584.658Z" fill="#1D2366"/>
<path d="M524.121 546.322C521.385 554.129 522.158 564.664 522.772 569.781C523 571.673 523.21 572.824 523.21 572.824C523.21 572.824 519.121 582.157 518.779 582.51C518.438 582.863 506.744 590.014 506.744 590.014L498.57 594.795C498.57 594.795 490.277 591.154 494.253 589.9C495.065 589.574 495.797 589.074 496.397 588.436C500.379 584.647 505.378 575.228 505.378 575.228C505.378 575.228 505.72 570.447 506.971 568.174C508.222 565.9 507.767 542.009 507.767 542.009L507.864 503.064V497.987L523.421 498.101C523.519 499.824 523.743 501.538 524.092 503.229C524.65 506.147 525.374 509.031 526.259 511.867C529.001 520.75 527.863 535.627 524.121 546.322Z" fill="#FFB0B1"/>
<path opacity="0.1" d="M523.21 572.824C523.21 572.824 519.121 582.157 518.78 582.51C518.438 582.863 506.744 590.014 506.744 590.014L498.57 594.795C498.57 594.795 490.277 591.154 494.253 589.9C495.065 589.574 495.797 589.074 496.397 588.436L496.75 590.926L499.474 590.812L522.795 569.792C523 571.673 523.21 572.824 523.21 572.824Z" fill="black"/>
<path d="M522.925 570.322L499.474 591.484L496.749 591.598L496.18 587.61C496.18 587.61 491.414 593.752 480.822 593.41C480.822 593.41 474.463 597.621 483.888 597.849C493.313 598.077 505.349 597.507 505.349 597.507C505.349 597.507 513.756 584.402 520.792 586.111V596.009H522.954V586.02C523.959 585.342 524.816 584.468 525.475 583.45C526.134 582.431 526.581 581.29 526.788 580.094C526.975 578.863 526.842 577.603 526.403 576.438C525.964 575.272 525.232 574.239 524.279 573.439C523.853 573.039 523.514 572.557 523.281 572.021C523.048 571.485 522.927 570.907 522.925 570.322Z" fill="#7DABFA"/>
<path d="M578.06 558.493C576.547 563.906 577.372 566.954 578.407 568.59V568.624C579.735 570.643 580.658 572.901 581.126 575.273L581.217 575.786L570.546 591.37L564.756 593.649C564.756 593.649 555.444 590.464 557.145 589.552C557.572 589.33 558.237 588.145 558.999 586.51C561.275 581.581 564.414 572.487 564.414 572.487V572.413C564.744 568.658 565.268 564.915 565.848 561.188C566.889 554.482 564.977 538.02 564.977 538.02C564.977 538.02 564.295 518.003 562.816 513.451C562.148 511.136 561.704 508.762 561.491 506.363C561.184 503.514 561.115 501.166 561.115 501.166C561.115 501.166 567.247 492.619 578.487 501.85C579.385 502.586 580.176 503.445 580.836 504.403C588.6 515.468 582.349 539.844 582.349 539.844C582.349 539.844 580.784 548.71 578.06 558.493Z" fill="#FFB0B1"/>
<path opacity="0.1" d="M581.233 575.786L570.563 591.37L564.772 593.649C564.772 593.649 555.461 590.464 557.162 589.553C557.588 589.33 558.254 588.145 559.016 586.51C562.958 586.476 565 590.236 565 590.236L569.994 589.439C569.994 589.439 576.581 576.47 578.059 575.678C579.538 574.886 578.287 569.758 578.287 569.758V568.453C578.327 568.499 578.361 568.55 578.406 568.596V568.63C579.734 570.649 580.658 572.907 581.125 575.279L581.233 575.786Z" fill="black"/>
<path d="M565.341 590.573C565.341 590.573 562.497 585.342 557.047 587.273C557.047 587.273 553.982 593.541 550.916 594.555C547.85 595.57 548.874 598.988 555.802 597.741C562.73 596.493 573.173 595.461 573.173 595.461L573.628 589.085L580.67 580.1C580.67 580.1 584.868 576.288 578.622 568.784V570.089C578.622 570.089 579.874 575.217 578.395 576.009C576.916 576.801 570.352 589.775 570.352 589.775L565.341 590.573Z" fill="#7DABFA"/>
<path opacity="0.1" d="M523.437 498.089C523.535 499.813 523.76 501.527 524.108 503.217C517.704 502.277 511.76 502.745 507.863 503.052V497.975L523.437 498.089Z" fill="black"/>
<path opacity="0.1" d="M581.468 505.821C581.468 505.821 572.367 506.266 561.514 506.357C561.207 503.508 561.139 501.161 561.139 501.161C561.139 501.161 567.27 492.614 578.51 501.844C579.409 502.58 580.2 503.44 580.859 504.397C581.035 504.883 581.239 505.358 581.468 505.821Z" fill="black"/>
<path d="M581.463 504.796C581.463 504.796 541.602 506.728 529.452 503.315C517.303 499.902 505.261 502.859 503.446 502.067C501.632 501.275 503.105 488.87 504.698 485.799C506.291 482.728 515.027 451.669 515.027 451.669L523.434 407.76L532.29 405.316L532.916 405.139L548.348 400.877L559.656 397.749C559.656 397.749 582.14 485.685 580.212 492.17C579.512 494.652 579.399 497.265 579.882 499.799C580.177 501.53 580.709 503.211 581.463 504.796Z" fill="#7DABFA"/>
<path d="M494.133 377.732C494.133 377.732 486.169 386.279 492.199 391.042C498.228 395.806 502.193 391.498 502.193 391.498L494.133 377.732Z" fill="#C7DAF5"/>
<path opacity="0.1" d="M494.133 377.732C494.133 377.732 486.169 386.279 492.199 391.042C498.228 395.806 502.193 391.498 502.193 391.498L494.133 377.732Z" fill="black"/>
<path d="M558.468 321.539C558.468 321.539 557.535 322.428 556.131 323.739C554.128 325.613 551.165 328.354 548.537 330.65C544.897 333.824 541.893 336.155 542.968 334.166C544.043 332.177 543.839 328.713 543.304 325.471C543.264 325.254 543.23 325.038 543.19 324.827C542.747 322.446 542.161 320.094 541.433 317.784C541.433 317.784 547.314 310.172 550.568 307.169C551.779 306.03 552.627 305.562 552.678 306.354C552.735 307.42 553.531 309.773 554.521 312.269C554.549 312.349 554.578 312.423 554.612 312.502C555.272 314.212 556.017 315.967 556.671 317.482C557.672 319.807 558.468 321.539 558.468 321.539Z" fill="#FFB0B1"/>
<path opacity="0.1" d="M554.612 312.502C554.059 315.48 552.718 318.255 550.729 320.536C548.74 322.817 546.175 324.522 543.304 325.471C542.852 322.87 542.227 320.302 541.433 317.784C541.433 317.784 552.507 303.454 552.678 306.354C552.718 307.454 553.582 309.892 554.612 312.502Z" fill="black"/>
<path opacity="0.1" d="M542.2 329.3L543.634 327.277C543.634 327.277 544.584 333.077 548.076 330.519C551.568 327.961 551.739 349.772 551.739 349.772L547.991 405.914L520.904 404.29L521.672 377.162L524.738 363.487L532.32 343.607L536.831 337.037L542.2 329.3Z" fill="black"/>
<path d="M551.739 350.12L548.326 400.883L547.968 406.262L532.866 405.356L532.297 405.322L520.921 404.638L521.689 377.504L524.755 363.829L532.337 343.949L536.847 337.379L542.217 329.613L543.65 327.596C543.65 327.596 544.6 333.396 548.093 330.838L548.167 330.787C551.579 328.622 551.739 350.12 551.739 350.12Z" fill="#7DABFA"/>
<path d="M525.137 359.077C525.137 359.077 523.778 361.926 521.047 361.465C518.317 361.003 518.323 371.721 518.323 371.721C518.323 371.721 516.508 373.43 515.257 371.949C514.006 370.467 510.706 375.476 510.706 375.476L490.036 376.387C490.036 376.387 499.234 380.598 497.431 393.339C497.431 393.339 528.658 391.402 529.682 388.444C530.706 385.487 525.137 359.077 525.137 359.077Z" fill="white"/>
<path opacity="0.03" d="M525.137 359.077C525.137 359.077 523.778 361.926 521.047 361.465C518.317 361.003 518.323 371.721 518.323 371.721C518.323 371.721 516.508 373.43 515.257 371.949C514.006 370.467 510.706 375.476 510.706 375.476L490.036 376.387C490.036 376.387 499.234 380.598 497.431 393.339C497.431 393.339 528.658 391.402 529.682 388.444C530.706 385.487 525.137 359.077 525.137 359.077Z" fill="black"/>
<path d="M465.064 383.083L470.514 387.743L515.37 397.185L509.807 391.498L465.064 383.083Z" fill="white"/>
<path d="M542.285 331.094C541.54 332.234 539.407 338.069 537.627 343.163C536.142 347.408 534.902 351.14 534.902 351.14C534.902 351.14 532.007 370.023 530.528 373.436C529.049 376.849 529.851 390.159 529.851 390.159L524.34 423.031C524.34 423.031 521.843 439.982 517.986 450.107C514.181 460.073 509.943 464.745 509.812 464.893C511.519 462.58 520.819 417.031 520.819 417.031L523.89 359.584C523.89 359.584 524.34 354.125 524.795 349.459C525.25 344.792 534.464 338.422 534.464 338.422L543.349 325.767C544.242 326.963 543.645 329.049 542.285 331.094Z" fill="white"/>
<path d="M519.118 404.923C519.118 404.923 506.036 404.353 499.699 396.729C493.363 389.105 514.346 393.686 514.346 393.686L519.801 394.94L519.118 404.923Z" fill="#FFB0B1"/>
<path opacity="0.1" d="M580.216 492.175C579.515 494.658 579.402 497.27 579.886 499.805C565.614 500.819 550.348 496.956 550.348 496.956C547.504 499.577 540.013 503.44 540.013 503.44L535.929 452.728C533.318 445.891 532.294 410.068 532.294 410.068C532.294 410.068 532.527 408.193 532.863 405.384C532.863 405.316 532.863 405.242 532.891 405.173C533.909 397.327 535.929 382.598 536.918 380.609C538.283 377.874 532.721 370.598 532.721 370.598L535.252 348.975L535.559 346.365C540.894 343.977 544.984 336.354 544.984 336.354L548.124 330.844C551.537 328.65 551.713 350.148 551.713 350.148L548.3 400.911L559.608 397.783C559.608 397.783 582.144 485.691 580.216 492.175Z" fill="black"/>
<path d="M594.862 495.679C579.306 503.417 551.03 496.249 551.03 496.249C548.186 498.87 540.695 502.733 540.695 502.733L536.606 452.022C534 445.184 532.977 409.361 532.977 409.361C532.977 409.361 536.264 382.632 537.629 379.903C538.028 379.105 537.834 377.92 537.362 376.644C535.041 370.569 534.187 364.03 534.871 357.562L535.963 348.268L536.264 345.664C541.605 343.271 545.695 335.647 545.695 335.647L548.539 330.656L553.772 321.459L556.252 317.106L556.673 317.488L559.887 320.405C559.887 320.405 561.252 321.545 563.299 323.254C567.753 327.015 575.449 333.636 579.419 337.687C582.912 341.254 584.015 355.128 584.334 365.573C584.544 372.45 584.419 377.84 584.419 377.84C580.898 383.647 590.107 430.261 590.107 430.261C592.251 439.27 594.862 495.679 594.862 495.679Z" fill="white"/>
<path opacity="0.03" d="M564.997 335.533C564.997 335.533 554.321 355.892 555.561 363.63C556.801 371.367 560.327 380.125 558.626 382.171C558.042 382.946 557.287 383.575 556.419 384.009C555.552 384.443 554.596 384.67 553.627 384.672C551.92 384.786 547.37 387.971 547.37 388.313C547.37 388.655 543.166 388.655 539.406 390.25C535.647 391.846 530.095 392.752 530.095 392.752C530.095 392.752 519.288 392.41 518.281 393.436C517.274 394.461 516.239 400.598 518.395 405.492C520.551 410.387 522.945 414.039 524.754 414.706C526.563 415.373 538.041 411.521 547.353 410.609C556.664 409.698 566.772 402.307 566.772 402.307C566.772 402.307 577.903 398.319 579.854 391.612C581.805 384.906 577.471 348.046 577.471 348.046C577.471 348.046 574.195 330.867 564.997 335.533Z" fill="black"/>
<path opacity="0.03" d="M563.635 333.824C563.635 333.824 552.958 354.188 554.21 361.92C555.461 369.652 558.976 378.416 557.27 380.467C556.688 381.243 555.933 381.872 555.067 382.307C554.2 382.741 553.245 382.967 552.276 382.968C550.569 383.082 546.019 386.267 546.019 386.609C546.019 386.951 541.815 386.951 538.056 388.541C534.296 390.131 528.744 391.042 528.744 391.042C528.744 391.042 517.937 390.7 516.936 391.726C515.935 392.752 514.888 398.894 517.05 403.783C519.211 408.672 521.6 412.33 523.409 412.996C525.218 413.663 536.696 409.811 546.007 408.905C555.319 407.999 565.426 400.598 565.426 400.598C565.426 400.598 576.552 396.609 578.481 389.908C580.409 383.208 576.097 346.336 576.097 346.336C576.097 346.336 572.832 329.163 563.635 333.824Z" fill="black"/>
<path d="M564.663 334.507C564.663 334.507 553.987 354.872 555.238 362.604C556.489 370.336 560.005 379.099 558.304 381.145C557.722 381.923 556.967 382.554 556.099 382.989C555.231 383.424 554.275 383.651 553.304 383.652C551.598 383.766 547.047 386.951 547.047 387.287C547.047 387.624 542.85 387.629 539.084 389.225C535.319 390.82 529.773 391.726 529.773 391.726C529.773 391.726 518.966 391.384 517.959 392.41C516.952 393.435 515.917 399.578 518.073 404.467C520.228 409.355 522.623 413.014 524.432 413.68C526.241 414.347 537.719 410.495 547.03 409.583C556.342 408.672 566.449 401.282 566.449 401.282C566.449 401.282 577.581 397.293 579.532 390.586C581.483 383.88 577.177 347.02 577.177 347.02C577.177 347.02 573.855 329.869 564.663 334.507Z" fill="white"/>
<path opacity="0.1" d="M564.432 389.128C564.432 389.128 555.9 387.418 558.869 390.267C561.838 393.116 561.821 395.612 565.455 395.498C569.09 395.384 564.432 389.128 564.432 389.128Z" fill="black"/>
<path opacity="0.1" d="M578.848 450.426C578.848 450.426 574.992 453.042 582.369 459.07C589.747 465.098 578.848 450.426 578.848 450.426Z" fill="black"/>
<path opacity="0.1" d="M571.489 471.924C571.489 472.266 570.124 484.46 575.232 487.508C580.34 490.557 571.489 471.924 571.489 471.924Z" fill="black"/>
<path d="M490.39 376.359C486.272 376.501 477.376 377.761 481.989 386.382C486.067 394.011 492.921 388.911 496.777 385.043C495.837 381.435 493.55 378.327 490.39 376.359Z" fill="#FFB0B1"/>
<path d="M496.828 384.976L497.001 384.797L496.828 384.976Z" fill="#FFB0B1"/>
<path opacity="0.1" d="M563.298 323.602C558.929 326.593 555.266 329.117 554.549 329.642C552.593 331.095 548.861 339.624 546.455 343.978C544.539 347.482 538.31 348.382 535.961 348.604L536.262 346C541.603 343.607 545.693 335.983 545.693 335.983L556.25 317.442L559.885 320.753C559.885 320.753 561.25 321.892 563.298 323.602Z" fill="black"/>
<path d="M563.298 323.26C558.929 326.251 555.266 328.775 554.549 329.305C552.593 330.753 548.861 339.282 546.455 343.636C544.539 347.14 538.31 348.04 535.961 348.262L536.262 345.658C541.603 343.265 545.693 335.641 545.693 335.641L556.25 317.1L559.885 320.399C559.885 320.399 561.25 321.528 563.298 323.26Z" fill="#DCE7FF"/>
<path d="M554.892 308.742C554.894 312.162 553.859 315.502 551.923 318.32C549.636 321.651 546.233 324.051 542.332 325.084C538.43 326.117 534.288 325.714 530.657 323.95C527.026 322.185 524.147 319.175 522.542 315.465C520.937 311.756 520.713 307.594 521.909 303.733C523.106 299.872 525.645 296.569 529.065 294.423C532.485 292.276 536.56 291.429 540.55 292.035C544.54 292.641 548.181 294.66 550.812 297.725C553.444 300.79 554.891 304.699 554.892 308.742Z" fill="#FFB0B1"/>
<path opacity="0.1" d="M584.334 365.578C582.024 364.155 580.142 362.13 578.89 359.721C577.94 357.84 577.309 355.669 575.688 354.336C574.226 353.139 572.275 352.849 570.455 352.313C564.471 350.541 559.454 345.071 559.267 338.826C559.176 335.886 560.091 332.952 559.676 330.04C559.44 328.392 558.786 326.833 557.776 325.51C557.275 324.878 556.725 324.285 556.132 323.738C555.336 322.986 554.5 322.257 553.772 321.459C553.313 320.965 552.912 320.42 552.577 319.835C552.307 319.356 552.088 318.85 551.923 318.325C550.786 314.838 551.821 310.701 550.57 307.174L550.501 306.981C550.029 305.727 549.068 304.473 547.731 304.377C546.395 304.28 545.251 305.391 543.977 305.887C541.309 306.924 538.431 305.157 536.207 303.357C533.983 301.556 531.475 299.499 528.648 299.898C526.777 300.166 525.298 301.442 523.574 302.103C523.185 302.254 522.783 302.37 522.374 302.451C523.833 298.807 526.512 295.786 529.953 293.906C533.394 292.027 537.38 291.406 541.228 292.151C545.076 292.896 548.544 294.96 551.038 297.989C553.532 301.017 554.894 304.821 554.892 308.747C554.894 309.932 554.77 311.115 554.523 312.274C554.551 312.354 554.58 312.428 554.614 312.508C555.274 314.217 556.019 315.972 556.673 317.488L559.887 320.405C559.887 320.405 561.252 321.544 563.299 323.254C567.753 327.014 575.449 333.635 579.419 337.687C582.912 341.265 584.004 355.134 584.334 365.578Z" fill="black"/>
<path d="M523.376 291.693C524.189 290.035 524.593 288.178 525.566 286.605C526.993 284.326 529.485 282.867 532.044 281.984C538.728 279.677 552.851 276.326 557.072 281.984C557.902 283.124 558.59 284.389 559.739 285.175C560.615 285.773 561.673 286.03 562.634 286.48C565.325 287.745 567.043 290.503 567.958 293.317C568.874 296.132 569.147 299.152 569.818 302.052C570.677 305.773 572.185 309.3 573.686 312.804C575.455 316.941 577.332 321.232 580.745 324.155C585.404 328.143 586.433 333.79 590.756 338.166C595.875 343.362 595.71 351.938 593.071 358.747C592.724 359.641 592.332 360.576 592.468 361.527C592.605 362.479 593.31 363.345 593.975 364.103L596.774 367.265C590.153 368.866 582.662 365.402 579.579 359.322C578.629 357.442 577.998 355.277 576.371 353.938C574.915 352.741 572.958 352.456 571.144 351.921C565.16 350.143 560.143 344.667 559.955 338.422C559.864 335.488 560.78 332.553 560.365 329.647C560.134 327.988 559.477 326.418 558.459 325.089C556.895 323.043 554.535 321.67 553.261 319.391C551.105 315.579 552.743 310.628 551.19 306.537C550.712 305.283 549.757 304.029 548.42 303.933C547.083 303.836 545.94 304.947 544.66 305.443C541.998 306.48 539.12 304.719 536.896 302.913C534.672 301.106 532.164 299.055 529.331 299.46C527.46 299.722 525.986 300.998 524.263 301.665C522.989 302.155 520.406 302.594 519.292 301.517C516.937 299.346 522.392 293.722 523.376 291.693Z" fill="#591D4B"/>
<path opacity="0.1" d="M581.157 357.442C580.201 355.561 579.576 353.396 577.949 352.063C576.493 350.866 574.536 350.576 572.716 350.04C566.738 348.268 561.721 342.792 561.528 336.547C561.437 333.613 562.352 330.673 561.943 327.767C561.705 326.119 561.049 324.559 560.037 323.237C558.467 321.191 556.107 319.818 554.838 317.539C552.683 313.733 554.321 308.781 552.762 304.685C552.29 303.437 551.329 302.183 549.998 302.081C548.667 301.978 547.512 303.101 546.238 303.596C543.576 304.633 540.692 302.867 538.474 301.066C536.256 299.266 533.736 297.209 530.909 297.608C529.038 297.876 527.559 299.152 525.841 299.813C524.567 300.303 521.979 300.747 520.864 299.67C518.52 297.391 523.975 291.779 524.954 289.762C525.767 288.098 526.171 286.246 527.149 284.673C527.2 284.588 527.257 284.502 527.314 284.417C526.582 285.024 525.951 285.743 525.443 286.548C524.47 288.121 524.066 289.967 523.253 291.636C522.269 293.653 516.814 299.283 519.163 301.545C520.301 302.628 522.86 302.183 524.134 301.693C525.841 301.026 527.331 299.75 529.203 299.488C532.047 299.083 534.549 301.14 536.768 302.941C538.986 304.742 541.887 306.508 544.537 305.471C545.812 304.975 546.926 303.858 548.292 303.961C549.657 304.063 550.567 305.311 551.062 306.565C552.614 310.656 550.976 315.607 553.132 319.419C554.406 321.659 556.767 323.06 558.331 325.117C559.349 326.446 560.005 328.017 560.236 329.676C560.652 332.582 559.736 335.516 559.827 338.45C560.015 344.718 565.031 350.171 571.015 351.949C572.818 352.484 574.786 352.769 576.243 353.966C577.875 355.305 578.518 357.47 579.451 359.351C582.534 365.43 590.025 368.895 596.646 367.293L595.326 365.801C589.587 365.886 583.779 362.615 581.157 357.442Z" fill="black"/>
<path opacity="0.1" d="M541.947 331.436C541.202 332.576 539.069 338.41 537.289 343.504C535.622 342.855 534.109 338.712 534.109 338.712L542.994 326.052C543.904 327.305 543.307 329.385 541.947 331.436Z" fill="black"/>
<path d="M542.287 331.094C541.542 332.234 539.409 338.068 537.629 343.162C535.962 342.519 534.449 338.37 534.449 338.37L543.334 325.715C544.244 326.963 543.647 329.049 542.287 331.094Z" fill="#DCE7FF"/>
<path d="M490.629 389.305L485.703 373.743C485.645 373.561 485.623 373.369 485.639 373.179C485.655 372.988 485.708 372.802 485.796 372.632C485.884 372.463 486.004 372.312 486.15 372.188C486.296 372.065 486.465 371.972 486.647 371.914C487.014 371.8 487.411 371.835 487.752 372.012C488.093 372.189 488.35 372.494 488.467 372.86L493.393 388.404L492.904 391.658L490.629 389.305Z" fill="#BE8B87"/>
<path opacity="0.1" d="M486.169 372.376C486.536 372.26 486.934 372.294 487.277 372.471C487.619 372.648 487.877 372.954 487.995 373.322L492.92 388.866L492.551 391.305L492.909 391.681L493.398 388.427L488.444 372.883C488.326 372.517 488.069 372.212 487.728 372.035C487.387 371.858 486.99 371.823 486.624 371.937C486.315 372.038 486.049 372.238 485.867 372.507C485.964 372.455 486.065 372.411 486.169 372.376Z" fill="white"/>
<path d="M490.628 389.305L493.392 388.427L492.988 391.094L492.903 391.681L492.095 390.837L490.628 389.305Z" fill="#EFC8C4"/>
<path d="M492.094 390.837C492.142 390.776 492.202 390.726 492.27 390.689C492.31 390.664 492.356 390.65 492.404 390.65C492.451 390.65 492.497 390.664 492.537 390.689C492.576 390.736 492.609 390.788 492.634 390.843C492.672 390.906 492.723 390.959 492.784 391C492.845 391.04 492.914 391.067 492.987 391.077L492.901 391.646L492.094 390.837Z" fill="#727A9C"/>
<path d="M485.673 379.271C485.673 379.271 495.553 379.214 493.227 383.424C490.9 387.635 487.265 388.142 487.265 388.142L485.673 379.271Z" fill="#FFB0B1"/>
<path d="M424.225 190.299H423.799C406.826 190.299 391.815 199.296 383.18 212.572C374.546 199.296 359.535 190.299 342.562 190.299H342.136C329.398 190.42 317.222 195.573 308.256 204.636C299.289 213.7 294.255 225.942 294.248 238.703C294.248 254.548 301.176 277.033 314.685 295.534C340.424 330.787 383.18 361.63 383.18 361.63C383.18 361.63 425.937 330.793 451.67 295.534C465.185 277.033 472.107 254.548 472.107 238.703C472.1 225.943 467.067 213.702 458.102 204.638C449.136 195.575 436.962 190.422 424.225 190.299ZM418.122 298.246C416.189 298.239 414.303 297.646 412.713 296.546C411.122 295.445 409.901 293.889 409.209 292.081H399.061C398.393 292.077 397.743 291.864 397.202 291.471C396.66 291.079 396.254 290.527 396.041 289.893L392.924 280.485L383.061 315.009C382.869 315.674 382.467 316.258 381.915 316.674C381.363 317.09 380.692 317.316 380.001 317.317H379.802C379.081 317.282 378.394 317 377.856 316.519C377.318 316.038 376.96 315.386 376.844 314.673L366.679 253.432L359.251 289.671C359.081 290.359 358.685 290.97 358.127 291.407C357.569 291.844 356.882 292.081 356.174 292.081H341.88C341.451 292.099 341.023 292.03 340.622 291.878C340.221 291.727 339.854 291.495 339.545 291.198C339.235 290.901 338.989 290.544 338.821 290.148C338.652 289.753 338.566 289.328 338.566 288.898C338.566 288.469 338.652 288.044 338.821 287.649C338.989 287.253 339.235 286.896 339.545 286.599C339.854 286.302 340.221 286.07 340.622 285.919C341.023 285.767 341.451 285.698 341.88 285.716H353.671L364.194 236.993C364.367 236.273 364.784 235.635 365.374 235.189C365.964 234.742 366.691 234.515 367.43 234.546C368.169 234.577 368.874 234.864 369.425 235.358C369.976 235.852 370.339 236.523 370.451 237.255L380.831 299.727L389.671 268.839C389.855 268.188 390.244 267.615 390.78 267.204C391.316 266.793 391.97 266.567 392.645 266.56H392.708C393.376 266.56 394.028 266.772 394.569 267.164C395.11 267.557 395.514 268.111 395.723 268.748L401.359 285.733H409.084C409.633 284.062 410.632 282.575 411.972 281.437C413.311 280.298 414.939 279.553 416.675 279.283C418.41 279.012 420.187 279.228 421.808 279.905C423.429 280.582 424.832 281.695 425.862 283.121C426.892 284.546 427.509 286.229 427.644 287.983C427.779 289.738 427.428 291.495 426.629 293.063C425.83 294.63 424.614 295.945 423.116 296.864C421.618 297.783 419.896 298.269 418.139 298.269L418.122 298.246Z" fill="#E75D52"/>
</g>
<defs>
<linearGradient id="paint0_linear" x1="225.41" y1="602.516" x2="225.41" y2="251.899" gradientUnits="userSpaceOnUse">
<stop stop-color="#808080" stop-opacity="0.25"/>
<stop offset="0.54" stop-color="#808080" stop-opacity="0.12"/>
<stop offset="1" stop-color="#808080" stop-opacity="0.1"/>
</linearGradient>
<linearGradient id="paint1_linear" x1="126988" y1="264706" x2="126988" y2="84731.4" gradientUnits="userSpaceOnUse">
<stop stop-color="#808080" stop-opacity="0.25"/>
<stop offset="0.54" stop-color="#808080" stop-opacity="0.12"/>
<stop offset="1" stop-color="#808080" stop-opacity="0.1"/>
</linearGradient>
<clipPath id="clip0">
<rect width="628.551" height="446" fill="white" transform="translate(22.7305 161)"/>
</clipPath>
</defs>
</svg>
