<svg width="336" height="76" viewBox="0 0 336 76" fill="none" xmlns="http://www.w3.org/2000/svg">
<g filter="url(#filter0_d)">
<path d="M6.15587 33.1795L19.396 11.9292L32.6362 33.1796C34.4434 36.1273 35.542 39.9495 35.542 43.7756C35.542 54.0544 28.2151 62.3314 19.396 62.3314C10.5769 62.3314 3.25 54.0544 3.25 43.7756C3.25 39.9495 4.34866 36.1273 6.15587 33.1795Z" stroke="#D14842" stroke-width="2.5"/>
<path d="M6.15587 33.1795L19.396 11.9292L32.6362 33.1796C34.4434 36.1273 35.542 39.9495 35.542 43.7756C35.542 54.0544 28.2151 62.3314 19.396 62.3314C10.5769 62.3314 3.25 54.0544 3.25 43.7756C3.25 39.9495 4.34866 36.1273 6.15587 33.1795Z" stroke="url(#paint0_linear)" stroke-width="2.5"/>
</g>
<g filter="url(#filter1_d)">
<path d="M222.794 41.043H227.461V45.3931H222.794V55.1304H217.695V45.3931H201.85V42.2529L217.436 13.1851H222.794V41.043ZM207.497 41.043H217.695V21.1074L207.497 41.043Z" fill="#EF5261"/>
</g>
<g filter="url(#filter2_d)">
<path d="M241.882 50.4771H258.332V55H236.582V13.0547H241.882V50.4771ZM269.423 55H264.324V23.8291H269.423V55ZM269.827 15.561C269.827 16.4253 269.587 17.1455 269.106 17.7217C268.626 18.2979 267.896 18.5859 266.917 18.5859C265.957 18.5859 265.236 18.2979 264.756 17.7217C264.276 17.1455 264.036 16.4253 264.036 15.561C264.036 14.6968 264.276 13.967 264.756 13.3716C265.236 12.7762 265.957 12.4785 266.917 12.4785C267.877 12.4785 268.597 12.7858 269.078 13.4004C269.577 13.9958 269.827 14.716 269.827 15.561ZM279.708 55V27.9487H275.646V23.8291H279.708V20.228C279.766 17.0591 280.563 14.5911 282.099 12.8242C283.655 11.0381 285.844 10.145 288.667 10.145C289.685 10.145 290.713 10.3083 291.75 10.6348L291.491 14.9561C290.761 14.7832 289.983 14.6968 289.157 14.6968C286.257 14.6968 284.807 16.7614 284.807 20.8906V23.8291H290.137V27.9487H284.807V55H279.708ZM306.586 55.5762C302.707 55.5762 299.73 54.4238 297.656 52.1191C295.582 49.7952 294.525 46.3958 294.487 41.9209V38.147C294.487 33.4992 295.495 29.8597 297.512 27.2285C299.548 24.5781 302.38 23.2529 306.01 23.2529C309.659 23.2529 312.387 24.4149 314.192 26.7388C315.997 29.0627 316.919 32.6829 316.958 37.5996V40.9414H299.557V41.6616C299.557 45.0034 300.181 47.4329 301.43 48.9502C302.697 50.4674 304.512 51.2261 306.875 51.2261C308.373 51.2261 309.688 50.9476 310.821 50.3906C311.974 49.8145 313.049 48.9118 314.048 47.6826L316.698 50.9092C314.49 54.0205 311.119 55.5762 306.586 55.5762ZM306.01 27.6318C303.898 27.6318 302.332 28.3617 301.314 29.8213C300.297 31.2617 299.72 33.5088 299.586 36.5625H311.858V35.8711C311.724 32.9134 311.186 30.8008 310.245 29.5332C309.323 28.2656 307.912 27.6318 306.01 27.6318Z" fill="#EF5261"/>
</g>
<g filter="url(#filter3_d)">
<path d="M68.8662 55V13.0547H80.8218C84.6437 13.0547 87.515 13.9862 89.4355 15.8491C91.3753 17.7121 92.3452 20.5065 92.3452 24.2324C92.3452 26.1914 91.8555 27.9199 90.876 29.418C89.8965 30.916 88.5713 32.078 86.9004 32.9038C88.821 33.48 90.3382 34.6611 91.4521 36.4473C92.5853 38.2334 93.1519 40.3844 93.1519 42.9004C93.1519 46.6647 92.1147 49.6224 90.0405 51.7734C87.9855 53.9245 85.047 55 81.2251 55H68.8662ZM74.1382 35.3813V50.4771H81.3403C83.3377 50.4771 84.9222 49.8241 86.0938 48.5181C87.2653 47.1929 87.8511 45.3395 87.8511 42.958C87.8511 37.9069 85.7192 35.3813 81.4556 35.3813H74.1382ZM74.1382 30.9448H80.9082C82.7327 30.9448 84.202 30.3302 85.3159 29.1011C86.4491 27.8719 87.0156 26.2394 87.0156 24.2036C87.0156 21.8989 86.5067 20.228 85.4888 19.1909C84.4709 18.1346 82.9152 17.6064 80.8218 17.6064H74.1382V30.9448ZM105.856 55H100.757V10.75H105.856V55ZM112.828 37.9741C112.828 33.4416 113.923 29.8597 116.112 27.2285C118.321 24.5781 121.231 23.2529 124.841 23.2529C128.452 23.2529 131.352 24.5397 133.542 27.1133C135.75 29.6868 136.883 33.1919 136.941 37.6284V40.9126C136.941 45.4259 135.846 48.9982 133.657 51.6294C131.467 54.2606 128.548 55.5762 124.899 55.5762C121.288 55.5762 118.388 54.299 116.199 51.7446C114.028 49.1903 112.905 45.7332 112.828 41.3735V37.9741ZM117.927 40.9126C117.927 44.12 118.551 46.6455 119.8 48.4893C121.067 50.3138 122.767 51.2261 124.899 51.2261C129.393 51.2261 131.707 47.9803 131.842 41.4888V37.9741C131.842 34.786 131.208 32.27 129.94 30.4263C128.673 28.5633 126.973 27.6318 124.841 27.6318C122.748 27.6318 121.067 28.5633 119.8 30.4263C118.551 32.27 117.927 34.7764 117.927 37.9453V40.9126ZM142.443 37.9741C142.443 33.4416 143.538 29.8597 145.728 27.2285C147.936 24.5781 150.846 23.2529 154.457 23.2529C158.067 23.2529 160.967 24.5397 163.157 27.1133C165.365 29.6868 166.499 33.1919 166.556 37.6284V40.9126C166.556 45.4259 165.461 48.9982 163.272 51.6294C161.083 54.2606 158.163 55.5762 154.514 55.5762C150.903 55.5762 148.003 54.299 145.814 51.7446C143.644 49.1903 142.52 45.7332 142.443 41.3735V37.9741ZM147.542 40.9126C147.542 44.12 148.167 46.6455 149.415 48.4893C150.683 50.3138 152.382 51.2261 154.514 51.2261C159.008 51.2261 161.323 47.9803 161.457 41.4888V37.9741C161.457 34.786 160.823 32.27 159.556 30.4263C158.288 28.5633 156.588 27.6318 154.457 27.6318C152.363 27.6318 150.683 28.5633 149.415 30.4263C148.167 32.27 147.542 34.7764 147.542 37.9453V40.9126ZM172.059 38.0029C172.059 33.2015 172.952 29.5428 174.738 27.0269C176.543 24.5109 179.126 23.2529 182.487 23.2529C185.464 23.2529 187.788 24.4629 189.459 26.8828V10.75H194.558V55H189.891L189.632 51.6582C187.961 54.2702 185.57 55.5762 182.458 55.5762C179.232 55.5762 176.697 54.3278 174.853 51.8311C173.028 49.3151 172.097 45.7716 172.059 41.2007V38.0029ZM177.158 40.9126C177.158 44.408 177.676 46.9816 178.713 48.6333C179.75 50.2658 181.441 51.082 183.784 51.082C186.319 51.082 188.211 49.8049 189.459 47.2505V31.521C188.153 29.0243 186.271 27.7759 183.812 27.7759C181.469 27.7759 179.779 28.6017 178.742 30.2534C177.705 31.8859 177.177 34.4019 177.158 37.8013V40.9126Z" fill="#EF5261"/>
</g>
<defs>
<filter id="filter0_d" x="0" y="7.56543" width="48.792" height="68.016" filterUnits="userSpaceOnUse" color-interpolation-filters="sRGB">
<feFlood flood-opacity="0" result="BackgroundImageFix"/>
<feColorMatrix in="SourceAlpha" type="matrix" values="0 0 0 0 0 0 0 0 0 0 0 0 0 0 0 0 0 0 127 0"/>
<feOffset dx="5" dy="5"/>
<feGaussianBlur stdDeviation="3.5"/>
<feColorMatrix type="matrix" values="0 0 0 0 0 0 0 0 0 0 0 0 0 0 0 0 0 0 0.25 0"/>
<feBlend mode="normal" in2="BackgroundImageFix" result="effect1_dropShadow"/>
<feBlend mode="normal" in="SourceGraphic" in2="effect1_dropShadow" result="shape"/>
</filter>
<filter id="filter1_d" x="199.85" y="11.1851" width="39.6108" height="55.9453" filterUnits="userSpaceOnUse" color-interpolation-filters="sRGB">
<feFlood flood-opacity="0" result="BackgroundImageFix"/>
<feColorMatrix in="SourceAlpha" type="matrix" values="0 0 0 0 0 0 0 0 0 0 0 0 0 0 0 0 0 0 127 0"/>
<feOffset dx="5" dy="5"/>
<feGaussianBlur stdDeviation="3.5"/>
<feColorMatrix type="matrix" values="0 0 0 0 0 0 0 0 0 0 0 0 0 0 0 0 0 0 0.25 0"/>
<feBlend mode="normal" in2="BackgroundImageFix" result="effect1_dropShadow"/>
<feBlend mode="normal" in="SourceGraphic" in2="effect1_dropShadow" result="shape"/>
</filter>
<filter id="filter2_d" x="234.582" y="8.14502" width="94.376" height="59.4312" filterUnits="userSpaceOnUse" color-interpolation-filters="sRGB">
<feFlood flood-opacity="0" result="BackgroundImageFix"/>
<feColorMatrix in="SourceAlpha" type="matrix" values="0 0 0 0 0 0 0 0 0 0 0 0 0 0 0 0 0 0 127 0"/>
<feOffset dx="5" dy="5"/>
<feGaussianBlur stdDeviation="3.5"/>
<feColorMatrix type="matrix" values="0 0 0 0 0 0 0 0 0 0 0 0 0 0 0 0 0 0 0.25 0"/>
<feBlend mode="normal" in2="BackgroundImageFix" result="effect1_dropShadow"/>
<feBlend mode="normal" in="SourceGraphic" in2="effect1_dropShadow" result="shape"/>
</filter>
<filter id="filter3_d" x="66.8662" y="8.75" width="139.692" height="58.8262" filterUnits="userSpaceOnUse" color-interpolation-filters="sRGB">
<feFlood flood-opacity="0" result="BackgroundImageFix"/>
<feColorMatrix in="SourceAlpha" type="matrix" values="0 0 0 0 0 0 0 0 0 0 0 0 0 0 0 0 0 0 127 0"/>
<feOffset dx="5" dy="5"/>
<feGaussianBlur stdDeviation="3.5"/>
<feColorMatrix type="matrix" values="0 0 0 0 0 0 0 0 0 0 0 0 0 0 0 0 0 0 0.25 0"/>
<feBlend mode="normal" in2="BackgroundImageFix" result="effect1_dropShadow"/>
<feBlend mode="normal" in="SourceGraphic" in2="effect1_dropShadow" result="shape"/>
</filter>
<linearGradient id="paint0_linear" x1="19.396" y1="9.56543" x2="19.396" y2="63.5814" gradientUnits="userSpaceOnUse">
<stop stop-color="white"/>
<stop offset="1" stop-color="white" stop-opacity="0"/>
</linearGradient>
</defs>
</svg>
