<svg width="985" height="493" viewBox="0 0 985 493" fill="none" xmlns="http://www.w3.org/2000/svg">
<path d="M769.425 92.609H527.892V87.6294H418.371V92.609H175.842C173.696 92.609 171.572 93.0317 169.59 93.8529C167.607 94.6742 165.806 95.878 164.289 97.3955C162.772 98.9131 161.569 100.715 160.748 102.697C159.927 104.68 159.504 106.805 159.504 108.951V439.776C159.504 444.11 161.225 448.267 164.289 451.332C167.353 454.397 171.509 456.118 175.842 456.118H769.425C773.758 456.118 777.914 454.397 780.978 451.332C784.042 448.267 785.763 444.11 785.763 439.776V108.951C785.763 106.805 785.34 104.68 784.519 102.697C783.698 100.715 782.495 98.9131 780.978 97.3955C779.461 95.878 777.66 94.6742 775.677 93.8529C773.695 93.0317 771.571 92.609 769.425 92.609Z" fill="#3F3D56"/>
<path opacity="0.1" d="M763.859 121.491H181.408V450.143H763.859V121.491Z" fill="black"/>
<path d="M472.136 112.527C475.435 112.527 478.11 109.852 478.11 106.552C478.11 103.251 475.435 100.576 472.136 100.576C468.837 100.576 466.162 103.251 466.162 106.552C466.162 109.852 468.837 112.527 472.136 112.527Z" fill="#7DABFA"/>
<path d="M802.117 444.168H745.274V440.071C745.274 439.964 745.253 439.859 745.212 439.76C745.171 439.662 745.112 439.572 745.036 439.497C744.961 439.421 744.871 439.361 744.773 439.321C744.674 439.28 744.569 439.259 744.462 439.259H724.973C724.866 439.259 724.761 439.28 724.662 439.321C724.564 439.361 724.474 439.421 724.399 439.497C724.323 439.572 724.263 439.662 724.223 439.76C724.182 439.859 724.161 439.964 724.161 440.071V444.168H711.98V440.071C711.98 439.964 711.959 439.859 711.918 439.76C711.877 439.662 711.818 439.572 711.742 439.497C711.667 439.421 711.577 439.361 711.479 439.321C711.38 439.28 711.275 439.259 711.168 439.259H691.679C691.572 439.259 691.467 439.28 691.368 439.321C691.27 439.361 691.18 439.421 691.105 439.497C691.029 439.572 690.969 439.662 690.929 439.76C690.888 439.859 690.867 439.964 690.867 440.071V444.168H678.686V440.071C678.686 439.964 678.665 439.859 678.624 439.76C678.583 439.662 678.524 439.572 678.448 439.497C678.373 439.421 678.283 439.361 678.185 439.321C678.086 439.28 677.981 439.259 677.874 439.259H658.385C658.278 439.259 658.173 439.28 658.074 439.321C657.976 439.361 657.886 439.421 657.811 439.497C657.735 439.572 657.675 439.662 657.635 439.76C657.594 439.859 657.573 439.964 657.573 440.071V444.168H645.392V440.071C645.392 439.964 645.371 439.859 645.33 439.76C645.289 439.662 645.23 439.572 645.154 439.497C645.079 439.421 644.989 439.361 644.891 439.321C644.792 439.28 644.687 439.259 644.58 439.259H625.091C624.984 439.259 624.879 439.28 624.78 439.321C624.682 439.361 624.592 439.421 624.517 439.497C624.441 439.572 624.381 439.662 624.341 439.76C624.3 439.859 624.279 439.964 624.279 440.071V444.168H612.098V440.071C612.098 439.964 612.077 439.859 612.036 439.76C611.995 439.662 611.936 439.572 611.86 439.497C611.785 439.421 611.695 439.361 611.597 439.321C611.498 439.28 611.393 439.259 611.286 439.259H591.797C591.69 439.259 591.585 439.28 591.486 439.321C591.388 439.361 591.298 439.421 591.223 439.497C591.147 439.572 591.087 439.662 591.047 439.76C591.006 439.859 590.985 439.964 590.985 440.071V444.168H578.804V440.071C578.804 439.964 578.783 439.859 578.742 439.76C578.701 439.662 578.642 439.572 578.566 439.497C578.491 439.421 578.401 439.361 578.303 439.321C578.204 439.28 578.099 439.259 577.992 439.259H558.503C558.396 439.259 558.291 439.28 558.192 439.321C558.094 439.361 558.004 439.421 557.929 439.497C557.853 439.572 557.793 439.662 557.753 439.76C557.712 439.859 557.691 439.964 557.691 440.071V444.168H545.51V440.071C545.51 439.964 545.489 439.859 545.448 439.76C545.407 439.662 545.348 439.572 545.272 439.497C545.197 439.421 545.107 439.361 545.009 439.321C544.91 439.28 544.805 439.259 544.698 439.259H392.033C391.926 439.259 391.821 439.28 391.722 439.321C391.624 439.361 391.534 439.421 391.459 439.497C391.383 439.572 391.323 439.662 391.283 439.76C391.242 439.859 391.221 439.964 391.221 440.071V444.168H379.04V440.071C379.04 439.964 379.019 439.859 378.978 439.76C378.937 439.662 378.878 439.572 378.802 439.497C378.727 439.421 378.637 439.361 378.539 439.321C378.44 439.28 378.335 439.259 378.228 439.259H358.739C358.632 439.259 358.527 439.28 358.428 439.321C358.33 439.361 358.24 439.421 358.165 439.497C358.089 439.572 358.029 439.662 357.989 439.76C357.948 439.859 357.927 439.964 357.927 440.071V444.168H345.746V440.071C345.746 439.964 345.725 439.859 345.684 439.76C345.643 439.662 345.584 439.572 345.508 439.497C345.433 439.421 345.343 439.361 345.245 439.321C345.146 439.28 345.041 439.259 344.934 439.259H325.445C325.338 439.259 325.233 439.28 325.134 439.321C325.036 439.361 324.946 439.421 324.871 439.497C324.795 439.572 324.735 439.662 324.695 439.76C324.654 439.859 324.633 439.964 324.633 440.071V444.168H312.452V440.071C312.452 439.964 312.431 439.859 312.39 439.76C312.349 439.662 312.29 439.572 312.214 439.497C312.139 439.421 312.049 439.361 311.951 439.321C311.852 439.28 311.747 439.259 311.64 439.259H292.151C292.044 439.259 291.939 439.28 291.84 439.321C291.742 439.361 291.652 439.421 291.577 439.497C291.501 439.572 291.441 439.662 291.401 439.76C291.36 439.859 291.339 439.964 291.339 440.071V444.168H279.158V440.071C279.158 439.964 279.137 439.859 279.096 439.76C279.055 439.662 278.996 439.572 278.92 439.497C278.845 439.421 278.755 439.361 278.657 439.321C278.558 439.28 278.453 439.259 278.346 439.259H258.857C258.75 439.259 258.645 439.28 258.546 439.321C258.447 439.361 258.358 439.421 258.283 439.497C258.207 439.572 258.147 439.662 258.107 439.76C258.066 439.859 258.045 439.964 258.045 440.071V444.168H245.864V440.071C245.864 439.964 245.843 439.859 245.802 439.76C245.761 439.662 245.702 439.572 245.626 439.497C245.551 439.421 245.461 439.361 245.363 439.321C245.264 439.28 245.159 439.259 245.052 439.259H225.563C225.456 439.259 225.351 439.28 225.252 439.321C225.153 439.361 225.064 439.421 224.989 439.497C224.913 439.572 224.853 439.662 224.813 439.76C224.772 439.859 224.751 439.964 224.751 440.071V444.168H212.57V440.071C212.57 439.964 212.549 439.859 212.508 439.76C212.467 439.662 212.408 439.572 212.332 439.497C212.257 439.421 212.167 439.361 212.069 439.321C211.97 439.28 211.865 439.259 211.758 439.259H192.269C192.162 439.259 192.056 439.28 191.958 439.321C191.859 439.361 191.77 439.421 191.695 439.497C191.619 439.572 191.559 439.662 191.518 439.76C191.478 439.859 191.457 439.964 191.457 440.071V444.168H154.102C148.934 444.168 143.976 446.222 140.322 449.878C136.667 453.533 134.613 458.492 134.613 463.662V472.477C134.613 477.648 136.667 482.606 140.322 486.262C143.976 489.918 148.934 491.972 154.102 491.972H802.117C807.286 491.972 812.244 489.918 815.898 486.262C819.553 482.606 821.607 477.648 821.607 472.477V463.662C821.607 458.492 819.553 453.533 815.898 449.878C812.244 446.222 807.286 444.168 802.117 444.168Z" fill="#3F3D56"/>
<path d="M590.638 158.795H354.832V406.738H590.638V158.795Z" fill="#6C63FF"/>
<path d="M985 491.143H0V493H985V491.143Z" fill="#3F3D56"/>
<path d="M889.338 426.266C902.684 440.591 903.374 461.646 903.374 461.646C903.374 461.646 882.425 459.475 869.079 445.15C855.733 430.825 855.043 409.77 855.043 409.77C855.043 409.77 875.992 411.94 889.338 426.266Z" fill="#00CF15"/>
<path d="M931.353 448.626C917.032 461.975 895.982 462.665 895.982 462.665C895.982 462.665 898.153 441.711 912.474 428.361C926.795 415.011 947.845 414.321 947.845 414.321C947.845 414.321 945.675 435.276 931.353 448.626Z" fill="#00CF15"/>
<path d="M927.795 491.143H875.12C874.109 491.143 873.119 490.859 872.263 490.323C871.406 489.786 870.717 489.02 870.275 488.111L858.807 464.53C858.407 463.709 858.223 462.799 858.271 461.887C858.32 460.974 858.599 460.089 859.084 459.315C859.568 458.54 860.242 457.901 861.041 457.459C861.84 457.016 862.738 456.784 863.651 456.784H939.263C940.177 456.784 941.075 457.016 941.874 457.459C942.673 457.901 943.346 458.54 943.831 459.315C944.315 460.089 944.595 460.974 944.643 461.887C944.692 462.799 944.508 463.709 944.108 464.53L932.64 488.111C932.197 489.02 931.509 489.786 930.652 490.323C929.795 490.859 928.805 491.143 927.795 491.143Z" fill="#3F3D56"/>
<path d="M56.5917 426.266C69.9379 440.591 70.6277 461.646 70.6277 461.646C70.6277 461.646 49.6791 459.475 36.3329 445.15C22.9867 430.825 22.2969 409.77 22.2969 409.77C22.2969 409.77 43.2455 411.94 56.5917 426.266Z" fill="#00CF15"/>
<path d="M82.3879 442.492C72.2417 459.237 52.1713 465.638 52.1713 465.638C52.1713 465.638 48.5512 444.891 58.6974 428.146C68.8436 411.401 88.9141 405 88.9141 405C88.9141 405 92.5342 425.747 82.3879 442.492Z" fill="#00CF15"/>
<path d="M86.6913 491.143H34.0164C33.0059 491.143 32.0158 490.859 31.1591 490.323C30.3024 489.786 29.6137 489.02 29.1716 488.111L17.7031 464.53C17.3035 463.709 17.1193 462.799 17.1678 461.887C17.2162 460.974 17.4958 460.089 17.9803 459.315C18.4647 458.54 19.138 457.901 19.937 457.459C20.736 457.016 21.6344 456.784 22.5479 456.784H98.1598C99.0732 456.784 99.9717 457.016 100.771 457.459C101.57 457.901 102.243 458.54 102.727 459.315C103.212 460.089 103.491 460.974 103.54 461.887C103.588 462.799 103.404 463.709 103.005 464.53L91.5361 488.111C91.094 489.02 90.4053 489.786 89.5486 490.323C88.6919 490.859 87.7018 491.143 86.6913 491.143Z" fill="#3F3D56"/>
<path opacity="0.1" d="M496.407 193.82C473.183 193.012 451.046 185.503 429.94 177.289C408.835 169.076 387.915 159.974 365.235 155.621C350.653 152.819 333.977 152.425 322.23 160.254C310.923 167.786 307.271 180.79 305.306 192.855C303.829 201.934 302.972 211.487 307.011 219.987C309.822 225.886 314.812 230.846 318.264 236.498C330.271 256.162 321.783 280.412 308.768 299.628C302.665 308.647 295.584 317.228 290.874 326.818C286.165 336.407 283.984 347.393 288.106 357.174C292.192 366.86 301.924 374.148 312.471 379.269C333.89 389.66 359.128 392.633 383.74 394.337C438.219 398.068 492.991 396.451 547.614 394.834C567.829 394.233 588.134 393.629 608.02 390.492C619.063 388.752 630.466 385.993 638.484 379.333C648.66 370.875 651.185 356.559 644.365 345.954C632.924 328.17 601.296 323.751 593.298 304.665C588.898 294.16 593.418 282.456 599.815 272.713C613.533 251.813 636.533 233.475 637.744 209.583C638.578 193.172 627.521 176.742 610.424 168.976C592.507 160.829 567.659 161.858 554.441 175.322C540.83 189.194 516.909 194.532 496.407 193.82Z" fill="#7DABFA"/>
<path d="M366.726 389.895C366.726 389.895 348.382 376.006 344.916 358.339C343.511 350.92 339.742 344.156 334.173 339.063C331.509 336.667 328.632 334.521 325.578 332.65" stroke="#535461" stroke-width="2" stroke-miterlimit="10"/>
<path d="M323.334 321.521C324.942 323.698 325.669 332.927 325.669 332.927C325.669 332.927 317.074 329.537 315.463 327.363C314.689 326.317 314.362 325.007 314.553 323.72C314.744 322.433 315.438 321.275 316.482 320.5C317.526 319.725 318.834 319.398 320.119 319.589C321.404 319.78 322.561 320.475 323.334 321.521Z" fill="#00CF15"/>
<path d="M338.751 328.762C338.917 331.464 334.525 339.607 334.525 339.607C334.525 339.607 329.145 332.079 328.975 329.376C328.91 328.088 329.355 326.826 330.213 325.864C331.071 324.902 332.273 324.317 333.558 324.236C334.844 324.155 336.109 324.585 337.08 325.432C338.052 326.279 338.651 327.475 338.747 328.762H338.751Z" fill="#00CF15"/>
<path d="M353.692 349.578C352.478 351.996 344.576 356.806 344.576 356.806C344.576 356.806 343.733 347.587 344.947 345.169C345.544 344.031 346.564 343.175 347.786 342.783C349.008 342.391 350.335 342.495 351.481 343.073C352.627 343.65 353.501 344.656 353.915 345.872C354.328 347.089 354.248 348.42 353.692 349.578Z" fill="#00CF15"/>
<path d="M361.459 367.869C360.669 370.458 353.695 376.534 353.695 376.534C353.695 376.534 351.303 367.592 352.094 365C352.474 363.756 353.331 362.714 354.478 362.104C355.625 361.494 356.967 361.364 358.209 361.745C359.451 362.125 360.491 362.984 361.101 364.133C361.71 365.281 361.839 366.625 361.459 367.869Z" fill="#00CF15"/>
<path d="M326.573 346.154C329.241 346.515 337.676 342.701 337.676 342.701C337.676 342.701 330.558 336.795 327.877 336.434C326.59 336.261 325.287 336.607 324.254 337.396C323.222 338.185 322.545 339.352 322.372 340.641C322.199 341.93 322.544 343.235 323.332 344.269C324.12 345.303 325.286 345.981 326.573 346.154Z" fill="#00CF15"/>
<path d="M335.927 367.435C338.596 366.977 345.49 360.815 345.49 360.815C345.49 360.815 336.931 357.314 334.266 357.772C333.628 357.876 333.017 358.107 332.469 358.449C331.92 358.792 331.444 359.24 331.069 359.767C330.694 360.295 330.428 360.891 330.284 361.523C330.141 362.154 330.124 362.808 330.234 363.446C330.344 364.084 330.579 364.694 330.926 365.24C331.272 365.787 331.724 366.259 332.254 366.63C332.784 367.001 333.382 367.263 334.013 367.401C334.645 367.539 335.298 367.551 335.934 367.435H335.927Z" fill="#00CF15"/>
<path d="M347.851 386.872C350.556 386.872 358.394 381.965 358.394 381.965C358.394 381.965 350.552 377.065 347.847 377.065C346.549 377.065 345.303 377.582 344.385 378.501C343.467 379.421 342.951 380.668 342.951 381.968C342.951 383.269 343.467 384.516 344.385 385.436C345.303 386.355 346.549 386.872 347.847 386.872H347.851Z" fill="#00CF15"/>
<path d="M544.932 269.771C544.932 269.771 556.238 249.712 573.282 243.934C580.438 241.554 586.632 236.914 590.932 230.71C592.949 227.744 594.69 224.599 596.132 221.314" stroke="#535461" stroke-width="2" stroke-miterlimit="10"/>
<path d="M606.832 217.64C604.891 219.524 595.855 221.474 595.855 221.474C595.855 221.474 598.073 212.489 600.015 210.602C600.952 209.723 602.196 209.248 603.479 209.279C604.762 209.31 605.982 209.844 606.875 210.767C607.769 211.69 608.265 212.927 608.257 214.212C608.249 215.498 607.737 216.728 606.832 217.64Z" fill="#7DABFA"/>
<path d="M601.723 233.883C599.054 234.411 590.426 231.131 590.426 231.131C590.426 231.131 597.163 224.784 599.815 224.266C600.451 224.125 601.11 224.112 601.752 224.229C602.393 224.346 603.005 224.59 603.551 224.947C604.097 225.304 604.567 225.766 604.932 226.307C605.297 226.849 605.551 227.457 605.678 228.098C605.805 228.738 605.803 229.398 605.672 230.038C605.541 230.678 605.284 231.285 604.915 231.824C604.547 232.363 604.075 232.822 603.526 233.176C602.978 233.53 602.365 233.77 601.723 233.883Z" fill="#7DABFA"/>
<path d="M583.123 251.479C580.569 250.594 574.762 243.392 574.762 243.392C574.762 243.392 583.767 241.328 586.329 242.213C586.944 242.418 587.513 242.743 588.002 243.169C588.491 243.595 588.891 244.115 589.178 244.697C589.465 245.279 589.633 245.913 589.674 246.561C589.714 247.209 589.626 247.859 589.413 248.472C589.201 249.086 588.869 249.651 588.437 250.135C588.005 250.62 587.481 251.013 586.896 251.293C586.311 251.572 585.676 251.733 585.028 251.765C584.381 251.797 583.733 251.7 583.123 251.479Z" fill="#7DABFA"/>
<path d="M566.034 261.62C563.366 261.179 556.441 255.05 556.441 255.05C556.441 255.05 564.976 251.489 567.641 251.93C568.924 252.141 570.07 252.854 570.828 253.912C571.586 254.969 571.893 256.285 571.682 257.57C571.471 258.854 570.759 260.002 569.703 260.761C568.647 261.52 567.333 261.828 566.05 261.617L566.034 261.62Z" fill="#7DABFA"/>
<path d="M582.891 224.106C582.887 226.815 587.794 234.674 587.794 234.674C587.794 234.674 592.693 226.825 592.693 224.119C592.71 223.465 592.596 222.814 592.358 222.204C592.12 221.594 591.762 221.039 591.306 220.57C590.849 220.101 590.304 219.728 589.702 219.473C589.099 219.219 588.452 219.088 587.799 219.088C587.145 219.088 586.498 219.219 585.895 219.473C585.293 219.728 584.748 220.101 584.291 220.57C583.835 221.039 583.478 221.594 583.239 222.204C583.001 222.814 582.887 223.465 582.904 224.119L582.891 224.106Z" fill="#7DABFA"/>
<path d="M563.07 236.218C563.877 238.803 570.895 244.832 570.895 244.832C570.895 244.832 573.23 235.874 572.416 233.288C571.994 232.091 571.124 231.104 569.99 230.535C568.856 229.967 567.545 229.861 566.335 230.241C565.125 230.62 564.109 231.456 563.501 232.57C562.893 233.685 562.741 234.993 563.077 236.218H563.07Z" fill="#7DABFA"/>
<path d="M545.436 250.637C545.796 253.309 551.693 260.447 551.693 260.447C551.693 260.447 555.498 252.013 555.138 249.331C555.067 248.681 554.866 248.052 554.548 247.481C554.231 246.91 553.802 246.408 553.288 246.005C552.773 245.603 552.184 245.307 551.554 245.136C550.924 244.964 550.266 244.921 549.619 245.008C548.972 245.095 548.349 245.311 547.786 245.643C547.224 245.975 546.733 246.416 546.343 246.94C545.954 247.465 545.673 248.062 545.517 248.697C545.361 249.332 545.333 249.991 545.436 250.637Z" fill="#7DABFA"/>
<path opacity="0.25" d="M606.832 217.64C604.891 219.524 595.855 221.474 595.855 221.474C595.855 221.474 598.073 212.489 600.015 210.602C600.952 209.723 602.196 209.248 603.479 209.279C604.762 209.31 605.982 209.844 606.875 210.767C607.769 211.69 608.265 212.927 608.257 214.212C608.249 215.498 607.737 216.728 606.832 217.64Z" fill="#00CF15"/>
<path opacity="0.25" d="M601.723 233.883C599.054 234.411 590.426 231.131 590.426 231.131C590.426 231.131 597.163 224.784 599.815 224.266C600.451 224.125 601.11 224.112 601.752 224.229C602.393 224.346 603.005 224.59 603.551 224.947C604.097 225.304 604.567 225.766 604.932 226.307C605.297 226.849 605.551 227.457 605.678 228.098C605.805 228.738 605.803 229.398 605.672 230.038C605.541 230.678 605.284 231.285 604.915 231.824C604.547 232.363 604.075 232.822 603.526 233.176C602.978 233.53 602.365 233.77 601.723 233.883Z" fill="#00CF15"/>
<path opacity="0.25" d="M583.123 251.479C580.569 250.594 574.762 243.392 574.762 243.392C574.762 243.392 583.767 241.328 586.329 242.213C586.944 242.418 587.513 242.743 588.002 243.169C588.491 243.595 588.891 244.115 589.178 244.697C589.465 245.279 589.633 245.913 589.674 246.561C589.714 247.209 589.626 247.859 589.413 248.472C589.201 249.086 588.869 249.651 588.437 250.135C588.005 250.62 587.481 251.013 586.896 251.293C586.311 251.572 585.676 251.733 585.028 251.765C584.381 251.797 583.733 251.7 583.123 251.479Z" fill="#00CF15"/>
<path opacity="0.25" d="M566.034 261.62C563.366 261.179 556.441 255.05 556.441 255.05C556.441 255.05 564.976 251.489 567.641 251.93C568.924 252.141 570.07 252.854 570.828 253.912C571.586 254.969 571.893 256.285 571.682 257.57C571.471 258.854 570.759 260.002 569.703 260.761C568.647 261.52 567.333 261.828 566.05 261.617L566.034 261.62Z" fill="black"/>
<path opacity="0.25" d="M582.891 224.106C582.887 226.815 587.794 234.674 587.794 234.674C587.794 234.674 592.693 226.825 592.693 224.119C592.71 223.465 592.596 222.814 592.358 222.204C592.12 221.594 591.762 221.039 591.306 220.57C590.849 220.101 590.304 219.728 589.702 219.473C589.099 219.219 588.452 219.088 587.799 219.088C587.145 219.088 586.498 219.219 585.895 219.473C585.293 219.728 584.748 220.101 584.291 220.57C583.835 221.039 583.478 221.594 583.239 222.204C583.001 222.814 582.887 223.465 582.904 224.119L582.891 224.106Z" fill="#00CF15"/>
<path opacity="0.25" d="M563.07 236.218C563.877 238.803 570.895 244.832 570.895 244.832C570.895 244.832 573.23 235.874 572.416 233.288C571.994 232.091 571.124 231.104 569.99 230.535C568.856 229.967 567.545 229.861 566.335 230.241C565.125 230.62 564.109 231.456 563.501 232.57C562.893 233.685 562.741 234.993 563.077 236.218H563.07Z" fill="black"/>
<path opacity="0.25" d="M545.436 250.637C545.796 253.309 551.693 260.447 551.693 260.447C551.693 260.447 555.498 252.013 555.138 249.331C555.067 248.681 554.866 248.052 554.548 247.481C554.231 246.91 553.802 246.408 553.288 246.005C552.773 245.603 552.184 245.307 551.554 245.136C550.924 244.964 550.266 244.921 549.619 245.008C548.972 245.095 548.349 245.311 547.786 245.643C547.224 245.975 546.733 246.416 546.343 246.94C545.954 247.465 545.673 248.062 545.517 248.697C545.361 249.332 545.333 249.991 545.436 250.637Z" fill="black"/>
<path d="M581.074 196.576C580.073 199.088 572.589 204.539 572.589 204.539C572.589 204.539 570.981 195.424 571.992 192.912C572.478 191.706 573.423 190.743 574.619 190.234C575.815 189.726 577.163 189.714 578.367 190.201C579.572 190.689 580.533 191.635 581.041 192.832C581.549 194.03 581.56 195.38 581.074 196.586V196.576Z" fill="#7DABFA"/>
<path d="M582.977 213.518C580.766 215.074 571.537 215.585 571.537 215.585C571.537 215.585 575.133 207.054 577.344 205.498C577.868 205.105 578.466 204.821 579.102 204.663C579.738 204.506 580.399 204.478 581.046 204.581C581.693 204.684 582.312 204.916 582.868 205.263C583.424 205.61 583.905 206.065 584.282 206.601C584.659 207.138 584.924 207.745 585.063 208.386C585.202 209.027 585.21 209.689 585.089 210.334C584.967 210.979 584.717 211.592 584.355 212.138C583.992 212.685 583.524 213.153 582.977 213.514V213.518Z" fill="#7DABFA"/>
<path d="M573.086 237.16C570.391 237.387 562.166 233.151 562.166 233.151C562.166 233.151 569.57 227.607 572.265 227.38C573.559 227.271 574.844 227.681 575.836 228.52C576.828 229.36 577.446 230.559 577.555 231.855C577.664 233.151 577.254 234.438 576.416 235.431C575.578 236.425 574.38 237.044 573.086 237.153V237.16Z" fill="#7DABFA"/>
<path d="M561.575 253.356C558.957 254.025 550.139 251.262 550.139 251.262C550.139 251.262 556.499 244.545 559.117 243.864C560.374 243.537 561.709 243.724 562.829 244.383C563.948 245.043 564.76 246.12 565.086 247.379C565.412 248.638 565.225 249.975 564.567 251.096C563.908 252.217 562.832 253.03 561.575 253.356Z" fill="#7DABFA"/>
<path d="M561.809 212.221C562.903 214.696 570.554 219.904 570.554 219.904C570.554 219.904 571.855 210.738 570.761 208.263C570.215 207.105 569.24 206.207 568.042 205.759C566.844 205.312 565.519 205.352 564.35 205.87C563.181 206.388 562.261 207.344 561.786 208.533C561.311 209.721 561.319 211.049 561.809 212.231V212.221Z" fill="#7DABFA"/>
<path d="M548.587 231.335C550.371 233.369 559.223 236.034 559.223 236.034C559.223 236.034 557.729 226.899 555.945 224.865C555.523 224.37 555.008 223.965 554.429 223.672C553.85 223.379 553.219 223.204 552.572 223.157C551.925 223.111 551.275 223.193 550.66 223.4C550.045 223.607 549.477 223.935 548.99 224.363C548.502 224.792 548.105 225.313 547.82 225.897C547.536 226.481 547.37 227.116 547.332 227.765C547.295 228.413 547.386 229.063 547.602 229.676C547.817 230.289 548.152 230.852 548.587 231.335Z" fill="#7DABFA"/>
<path d="M538.284 251.683C539.698 253.988 547.973 258.113 547.973 258.113C547.973 258.113 548.043 248.857 546.639 246.549C545.94 245.483 544.854 244.732 543.611 244.455C542.369 244.177 541.067 244.396 539.982 245.064C538.898 245.732 538.116 246.796 537.802 248.032C537.488 249.268 537.667 250.577 538.301 251.683H538.284Z" fill="#7DABFA"/>
<path d="M528.572 179.585C529.126 177.55 529.793 175.506 530.26 173.445C529.7 175.506 529.029 177.557 528.572 179.585Z" fill="url(#paint0_linear)"/>
<path d="M453.216 248.239L451.214 249.124C451.214 249.124 438.17 299.875 438.17 303.977C438.17 308.079 465.83 330.903 465.83 330.903L470.146 301.729C470.146 301.729 463.949 234.828 453.216 248.239Z" fill="#E8F5FF"/>
<path d="M513.887 232.095L502.33 226.056C501.683 223.293 500.534 220.672 498.941 218.324C497.25 215.879 495.002 213.477 492.201 212.224C485.12 209.045 522.152 192.354 522.152 192.354C522.735 194.359 523.422 196.332 524.21 198.266C526.117 202.982 529.283 209.081 533.362 210.818C540.296 213.774 513.887 232.095 513.887 232.095Z" fill="#FFC1C7"/>
<path opacity="0.1" d="M524.21 198.266C522.627 203.839 519.337 208.773 514.803 212.372C510.269 215.971 504.721 218.053 498.941 218.324C497.25 215.879 495.002 213.477 492.201 212.224C485.12 209.045 522.152 192.354 522.152 192.354C522.735 194.359 523.422 196.332 524.21 198.266Z" fill="black"/>
<path d="M525.251 189.839C525.252 195.305 523.635 200.648 520.603 205.193C517.572 209.739 513.263 213.281 508.221 215.374C503.179 217.466 497.63 218.014 492.277 216.949C486.924 215.883 482.007 213.251 478.147 209.386C474.288 205.522 471.66 200.598 470.595 195.237C469.53 189.876 470.076 184.319 472.165 179.27C474.254 174.22 477.791 169.904 482.329 166.868C486.868 163.831 492.203 162.211 497.661 162.212C501.288 162.195 504.883 162.898 508.238 164.28C511.593 165.663 514.641 167.697 517.206 170.266C519.771 172.835 521.803 175.887 523.184 179.246C524.564 182.606 525.267 186.206 525.251 189.839Z" fill="#FFC1C7"/>
<path d="M529.232 228.549L521.707 246.131L515.07 257.802H493.824L487.627 241.846L490.138 225.299H506.365L516.841 224.707L520.38 223.525L522.661 224.821L529.232 228.549Z" fill="#575A89"/>
<path opacity="0.1" d="M526.641 205.11C526.641 205.11 531.333 206.112 527.131 209.563C522.928 213.013 508.43 223.986 508.43 223.986C508.43 223.986 513.523 228.528 512.469 233.849L529.342 224.43L532.344 209.359C532.344 209.359 532.681 204.83 526.641 205.11Z" fill="black"/>
<path opacity="0.1" d="M511.749 223.986L501.015 225.759C501.015 225.759 503.23 233.96 502.123 236.288C502.089 236.36 502.061 236.435 502.039 236.512L497.66 248.366L500.942 257.675L512.302 242.16L508.43 236.288C508.43 236.288 512.522 230.857 514.957 228.973C517.392 227.089 511.749 223.986 511.749 223.986Z" fill="black"/>
<path d="M511.749 223.528L501.015 225.299C501.015 225.299 503.23 233.499 502.123 235.827C502.089 235.899 502.061 235.974 502.039 236.051L497.66 247.905L500.942 257.214L512.302 241.689L508.43 235.817C508.43 235.817 512.522 230.386 514.957 228.502C517.392 226.618 511.749 223.528 511.749 223.528Z" fill="#DCE6F2"/>
<path d="M527.091 204.225C527.091 204.225 531.784 205.227 527.578 208.677C523.372 212.128 508.43 223.986 508.43 223.986C508.43 223.986 513.963 227.643 512.912 232.961L529.786 223.545L532.788 208.474C532.788 208.474 533.121 203.944 527.091 204.225Z" fill="#575A89"/>
<path opacity="0.1" d="M499.679 219.37C499.679 219.37 500.703 221.287 505.222 224.744C505.222 224.744 497.698 228.752 500.576 234.387L489.066 231.381L487.295 225.84L499.679 219.37Z" fill="black"/>
<path d="M499.234 218.929C499.234 218.929 500.258 220.846 504.778 224.303C504.778 224.303 497.253 228.291 500.131 233.943L488.625 230.937L486.854 225.399L499.234 218.929Z" fill="#575A89"/>
<path opacity="0.1" d="M529.232 228.548L521.707 246.131L515.083 257.802H493.824L487.627 241.846L490.135 225.298H494.648C494.574 229.16 495.982 233.696 495.892 235.383C495.738 238.155 500.021 253.112 500.021 253.112C500.021 253.112 508.983 238.596 512.522 237.303C514.746 236.492 519.459 229.738 522.658 224.821L529.232 228.548Z" fill="black"/>
<path d="M558.872 321.076L558.108 322.038C558.108 322.038 563.641 349.852 562.11 356.168C561.85 357.307 561.701 358.468 561.667 359.635V359.686C561.397 366.112 563.334 374.453 563.334 374.453C563.334 374.453 564.882 399.037 564.001 409.148H460.4C459.793 394.197 459.139 374.827 459.733 372.679C460.733 369.135 462.735 356.279 462.735 356.279L462.955 350.186C462.955 350.186 462.955 344.297 463.135 337.737C463.211 334.788 463.325 331.691 463.488 328.946C463.698 325.492 463.992 322.582 464.396 321.153C464.644 320.069 464.787 318.964 464.822 317.853C464.822 317.749 464.822 317.642 464.842 317.535C464.842 317.201 464.876 316.841 464.889 316.47C464.889 316.366 464.889 316.263 464.889 316.136C464.953 313.985 464.929 311.433 464.859 308.787C464.859 308.644 464.859 308.497 464.859 308.35C464.802 306.366 464.719 304.342 464.626 302.418C464.335 296.405 463.959 291.321 463.959 291.321L451.234 249.101L454.663 240.644L464.179 234.805L481.773 224.166C490.354 217.102 496.004 217.95 498.159 218.725C498.368 218.797 498.573 218.88 498.773 218.976C498.839 219.009 498.893 219.036 498.943 219.066C499.011 219.098 499.077 219.136 499.14 219.179C498.55 219.464 498.037 219.886 497.645 220.412C497.204 221.01 496.89 221.692 496.721 222.416C496.609 222.865 496.53 223.321 496.485 223.782C496.441 224.266 496.425 224.767 496.425 225.272C496.448 226.378 496.543 227.481 496.708 228.575C496.708 228.595 496.708 228.622 496.708 228.649C496.818 229.43 496.955 230.195 497.088 230.913C497.087 230.926 497.087 230.938 497.088 230.95C497.242 231.789 497.395 232.564 497.499 233.232C497.519 233.352 497.535 233.462 497.552 233.566C497.625 234.007 497.66 234.454 497.655 234.902C497.693 235.982 497.838 237.057 498.089 238.108C498.176 238.549 498.276 239.02 498.386 239.511C498.536 240.179 498.699 240.907 498.876 241.649C498.973 242.056 499.076 242.477 499.183 242.895C499.223 243.062 499.266 243.229 499.306 243.399L499.373 243.663C500.083 246.492 500.854 249.308 501.327 251.012C501.608 252.014 501.784 252.632 501.784 252.632C501.784 252.632 506.807 244.498 510.816 239.869C510.877 239.802 510.93 239.738 510.987 239.678C511.383 239.221 511.774 238.803 512.147 238.436C512.964 237.621 513.698 237.039 514.289 236.826C514.414 236.779 514.536 236.722 514.652 236.655C516.293 235.723 518.941 232.34 521.419 228.796C521.663 228.462 521.9 228.098 522.14 227.754C522.69 226.959 523.224 226.16 523.727 225.395C524.114 224.811 524.485 224.243 524.835 223.702C526.502 221.103 527.676 219.166 527.676 219.166L529.991 219.062L530.395 219.042H530.665L541.175 218.555C541.175 218.555 541.628 218.632 542.375 218.782C542.415 218.782 542.455 218.782 542.499 218.809C546.228 219.55 556.587 221.898 557.221 225.155C557.995 229.143 574.704 234.464 574.704 234.464C574.925 237.136 579.017 238.897 579.017 238.897C579.017 238.897 585.214 255.297 583.556 261.724C581.919 268.07 587.819 283.769 587.976 284.21L586.845 285.64L558.872 321.076Z" fill="#E8F5FF"/>
<path opacity="0.1" d="M526.639 203.944C526.639 203.944 536.868 201.038 539.193 207.021C541.518 213.003 546.717 237.163 546.717 237.163C546.717 237.163 533.216 239.711 529.677 237.163C527.601 235.65 525.032 234.978 522.483 235.279L514.848 240.486L512.594 239.818C512.594 239.818 524.808 221.634 527.463 215.455C530.117 209.275 531.015 206.513 526.639 203.944Z" fill="black"/>
<path d="M526.194 202.608C526.194 202.608 536.43 199.702 538.765 205.684C541.099 211.667 546.289 235.826 546.289 235.826C546.289 235.826 532.791 238.375 529.249 235.826C527.174 234.314 524.606 233.641 522.058 233.943L514.417 239.15L512.162 238.482C512.162 238.482 524.376 220.298 527.031 214.118C529.686 207.939 530.57 205.183 526.194 202.608Z" fill="#E8F5FF"/>
<path opacity="0.1" d="M457.529 298.99C457.529 298.99 465.164 300.874 466.605 305.196C468.046 309.519 460.962 309.629 460.962 309.629C460.962 309.629 456.646 301.983 457.529 298.99Z" fill="black"/>
<path opacity="0.1" d="M485.966 330.903C485.966 330.903 467.268 369.245 471.584 372.903C475.9 376.56 485.966 330.903 485.966 330.903Z" fill="black"/>
<path opacity="0.1" d="M511.748 302.648C511.748 302.648 526.687 339.891 523.699 345.643C520.71 351.395 530.116 345.643 530.116 345.643L511.748 302.648Z" fill="black"/>
<path d="M532.552 339.437C532.552 339.437 482.095 341.875 496.814 357.611C511.533 373.347 541.737 358.279 541.737 358.279L532.552 339.437Z" fill="#FFC1C7"/>
<path opacity="0.1" d="M525.251 189.838C525.255 193.463 524.544 197.052 523.159 200.4C522.696 200.454 522.232 200.487 521.785 200.507C521.118 199.041 521.475 197.347 521.488 195.734C521.502 194.121 520.908 192.223 519.357 191.789C516.265 190.917 514.131 196.706 511.082 195.66C508.747 194.865 509.358 191.318 508.014 189.271C506.95 187.651 504.818 187.193 503.161 186.178C499.635 184.01 499.742 180.543 498.104 177.262C496.39 173.825 492.768 174.841 489.623 176.868C487.235 178.412 485.173 180.479 482.619 181.708C480.407 182.777 477.922 183.165 475.471 183.221C473.962 183.28 472.452 183.12 470.988 182.747C472.71 176.265 476.727 170.631 482.29 166.897C487.854 163.162 494.584 161.581 501.225 162.449C507.866 163.317 513.965 166.575 518.385 171.614C522.805 176.654 525.244 183.131 525.247 189.838H525.251Z" fill="black"/>
<path d="M489.632 175.984C487.24 177.527 485.182 179.591 482.628 180.827C480.416 181.892 477.931 182.28 475.48 182.337C472.478 182.403 469.246 181.876 467.195 179.705C465.311 177.7 464.86 174.617 465.657 171.989C466.455 169.36 468.366 167.179 470.61 165.599C472.855 164.019 475.46 162.927 476.947 160.665C477.735 159.47 478.115 158.06 478.769 156.787C480.86 152.716 485.563 150.511 490.109 150.237C494.655 149.963 499.161 151.319 503.49 152.789C507.819 154.259 512.182 155.875 516.751 156.179C518.786 156.306 520.9 156.179 522.788 156.951C525.326 157.983 526.991 160.452 528.125 162.963C529.395 165.796 530.186 168.889 530.052 171.982C529.772 178.586 525.416 185.066 527.331 191.392C527.838 193.079 528.788 194.809 528.281 196.496C527.541 198.958 524.369 199.519 521.804 199.636C521.137 198.169 521.494 196.472 521.507 194.862C521.521 193.252 520.927 191.352 519.379 190.918C516.284 190.053 514.15 195.831 511.108 194.789C508.79 193.991 509.39 190.447 508.043 188.399C506.979 186.776 504.844 186.322 503.19 185.306C499.664 183.138 499.771 179.671 498.133 176.391C496.406 172.937 492.78 173.953 489.632 175.984Z" fill="#99607E"/>
<path d="M440.707 303.089L438.162 303.977C438.162 303.977 439.162 319.049 435.827 323.371C432.492 327.693 446.78 338.438 446.78 338.438C446.78 338.438 466.365 338.328 466.919 336.768C467.472 335.208 465.918 308.844 465.918 308.844C465.918 308.844 455.405 304.742 456.289 298.206C456.289 298.206 453.081 313.607 448.324 312.943C443.568 312.278 438.168 308.3 440.707 303.089Z" fill="#E8F5FF"/>
<path opacity="0.1" d="M449.194 317.605C452.902 317.605 455.908 314.852 455.908 311.456C455.908 308.06 452.902 305.307 449.194 305.307C445.486 305.307 442.48 308.06 442.48 311.456C442.48 314.852 445.486 317.605 449.194 317.605Z" fill="black"/>
<path d="M456.535 303.533C456.535 303.533 455.201 262.755 443.587 271.841C431.974 280.926 431.86 291.792 434.072 295.002C436.283 298.212 443.374 314.282 443.374 314.282C444.483 314.926 445.729 315.297 447.009 315.366C448.289 315.434 449.567 315.198 450.739 314.677C451.91 314.155 452.942 313.363 453.749 312.366C454.556 311.368 455.115 310.193 455.381 308.937L456.535 303.533Z" fill="#FFC1C7"/>
<path opacity="0.1" d="M528.982 200.244C528.928 200.064 528.824 199.904 528.682 199.783C528.109 199.258 526.875 199.074 525.013 199.235L525.09 200.117C527.572 199.903 528.062 200.397 528.125 200.481V200.564L528.202 200.674C528.511 201.091 528.731 201.567 528.845 202.074C528.96 202.58 528.968 203.104 528.869 203.614C528.325 206.336 524.987 208.504 524.953 208.527L524.873 208.574L524.823 208.651C523.382 210.792 515.234 216.834 513.103 218.398L512.916 218.184C511.962 219.012 503.577 226.364 503.124 229.18C502.83 230.947 500.842 231.632 500.122 231.822C499.362 231.244 496.893 229.277 495.609 227.072C494.405 224.998 499.251 220.95 499.678 219.37L499.011 218.685C498.941 218.939 492.718 224.764 494.449 227.74C495.836 230.128 498.371 232.173 499.258 232.847C498.975 235.426 497.21 250.567 494.499 254.155C491.13 258.614 488.298 281.087 488.612 288.933C488.889 295.904 487.071 309.071 481.001 314.726C479.95 315.748 478.682 316.519 477.292 316.982C475.902 317.445 474.425 317.587 472.973 317.398H472.899H472.826C472.739 317.398 463.934 318.3 456.536 312.054C450.482 306.954 447.054 298.63 446.34 287.306H446.193L446.133 284.01C447.775 283.753 449.253 282.869 450.257 281.544C451.262 280.219 451.714 278.556 451.519 276.903C451.325 275.251 450.498 273.739 449.214 272.684C447.929 271.629 446.286 271.114 444.63 271.247C442.974 271.38 441.434 272.151 440.334 273.397C439.233 274.643 438.658 276.268 438.728 277.93C438.799 279.592 439.51 281.162 440.713 282.31C441.915 283.458 443.515 284.095 445.176 284.086H445.249L445.309 287.363L445.016 287.383C445.75 299.074 449.352 307.722 455.689 313.063C460.506 317.06 466.658 319.076 472.902 318.704C473.346 318.753 473.791 318.777 474.237 318.778C477.099 318.793 479.853 317.683 481.908 315.688C488.302 309.726 490.246 296.074 489.943 288.866C489.609 280.552 492.581 258.888 495.563 254.943C498.484 251.072 500.255 235.987 500.566 233.065C501.623 232.767 504.014 231.829 504.421 229.39C504.715 227.627 510.315 222.192 513.76 219.183L513.657 219.062C515.511 217.706 521.278 213.431 524.136 210.685C525.023 209.833 525.904 208.982 526.825 208.17C527.932 207.188 529.339 205.628 529.71 203.784C529.836 203.176 529.836 202.547 529.711 201.939C529.586 201.33 529.338 200.753 528.982 200.244Z" fill="black"/>
<path d="M499.144 232.637C499.004 232.54 495.682 230.158 494.018 227.292C492.29 224.316 498.514 218.494 498.58 218.24L499.248 218.925C498.824 220.502 493.978 224.553 495.182 226.624C496.699 229.24 499.895 231.528 499.928 231.551L499.144 232.637Z" fill="#353146"/>
<path d="M512.669 219.046L512.148 218.327C512.255 218.251 522.731 210.662 524.382 208.207L524.436 208.133L524.512 208.083C524.546 208.06 527.885 205.895 528.428 203.169C528.528 202.661 528.521 202.136 528.406 201.631C528.291 201.125 528.071 200.649 527.761 200.233L527.684 200.12V200.04C527.618 199.953 527.127 199.462 524.646 199.676L524.569 198.79C526.434 198.63 527.664 198.814 528.238 199.338C528.381 199.461 528.486 199.622 528.542 199.803C528.902 200.31 529.155 200.887 529.285 201.496C529.414 202.106 529.418 202.736 529.295 203.347C528.925 205.194 527.521 206.754 526.41 207.732C525.493 208.544 524.609 209.402 523.725 210.247C520.373 213.464 513.036 218.782 512.669 219.046Z" fill="#E8F5FF"/>
<path d="M445.702 282.847L444.818 282.863L444.917 288.243L445.801 288.227L445.702 282.847Z" fill="#E8F5FF"/>
<path d="M444.745 283.662C448.309 283.662 451.199 280.768 451.199 277.199C451.199 273.629 448.309 270.735 444.745 270.735C441.18 270.735 438.291 273.629 438.291 277.199C438.291 280.768 441.18 283.662 444.745 283.662Z" fill="#7DABFA"/>
<path d="M444.747 282.567C447.707 282.567 450.106 280.163 450.106 277.199C450.106 274.234 447.707 271.831 444.747 271.831C441.786 271.831 439.387 274.234 439.387 277.199C439.387 280.163 441.786 282.567 444.747 282.567Z" fill="#E8F5FF"/>
<path d="M473.816 318.347C473.371 318.347 472.925 318.324 472.482 318.277C466.238 318.645 460.087 316.629 455.269 312.635C448.932 307.291 445.336 298.653 444.596 286.952L445.93 286.869C446.644 298.192 450.072 306.519 456.129 311.616C463.527 317.846 472.329 316.961 472.416 316.961H472.489H472.562C474.016 317.148 475.492 317.005 476.883 316.543C478.273 316.08 479.542 315.31 480.594 314.288C486.661 308.633 488.479 295.466 488.202 288.495C487.868 280.642 490.7 258.169 494.072 253.714C497.024 249.809 498.855 232.209 498.875 232.032L498.925 231.531L499.418 231.444C499.448 231.444 502.33 230.896 502.69 228.739C503.157 225.926 511.529 218.574 512.479 217.743L513.35 218.745C509.891 221.751 504.291 227.189 504.011 228.956C503.604 231.401 501.213 232.336 500.159 232.63C499.825 235.556 498.068 250.637 495.156 254.508C492.174 258.453 489.202 280.118 489.536 288.432C489.823 295.64 487.898 309.295 481.504 315.254C479.446 317.254 476.685 318.365 473.816 318.347Z" fill="#353146"/>
<g opacity="0.1">
<path opacity="0.1" d="M528.092 181.942C528.639 179.918 529.299 177.88 529.759 175.83C529.209 177.891 528.545 179.918 528.092 181.942Z" fill="black"/>
<path opacity="0.1" d="M522.512 197.849C521.845 196.382 522.202 194.685 522.215 193.075C522.228 191.465 521.635 189.581 520.087 189.131C516.992 188.265 514.857 194.047 511.815 193.002C509.481 192.204 510.098 188.66 508.75 186.612C507.686 184.989 505.555 184.534 503.901 183.519C500.372 181.351 500.479 177.884 498.844 174.604C497.127 171.164 493.508 172.179 490.359 174.21C487.968 175.753 485.91 177.821 483.355 179.053C481.144 180.119 478.659 180.506 476.207 180.563C473.222 180.633 469.974 180.102 467.923 177.931C466.342 176.261 465.771 173.812 466.098 171.518C466.041 171.675 465.991 171.832 465.941 171.989C465.141 174.617 465.608 177.707 467.479 179.704C469.53 181.876 472.779 182.403 475.764 182.337C478.219 182.28 480.7 181.892 482.915 180.827C485.476 179.591 487.534 177.527 489.919 175.983C493.068 173.953 496.69 172.937 498.404 176.378C500.038 179.658 499.935 183.125 503.46 185.293C505.128 186.295 507.246 186.762 508.313 188.386C509.647 190.44 509.057 193.977 511.378 194.776C514.417 195.818 516.551 190.039 519.647 190.904C521.194 191.338 521.791 193.242 521.775 194.849C521.758 196.456 521.411 198.156 522.071 199.622C524.636 199.505 527.808 198.954 528.552 196.482C528.654 196.128 528.702 195.759 528.692 195.39C527.608 197.264 524.82 197.745 522.512 197.849Z" fill="black"/>
</g>
<path opacity="0.1" d="M582.792 280.151L586.664 284.253C586.664 284.253 589.763 306.857 591.311 308.971C592.858 311.085 596.514 319.496 593.082 325.812C593.082 325.812 591.974 329.249 592.638 330.689C593.302 332.129 587.662 339.333 587.662 339.333C587.662 339.333 580.247 345.98 578.696 346.979C577.145 347.978 568.961 355.954 566.196 356.065C563.431 356.175 562.527 359.612 562.527 359.612L546.924 360.166C546.924 360.166 538.306 359.715 536.431 360.935C536.431 360.935 537.432 347.747 527.803 339.103L540.083 334.671C540.083 334.671 544.733 332.666 546.17 330.572C547.075 329.288 548.358 328.32 549.839 327.803C549.839 327.803 553.268 325.365 553.378 324.035C553.488 322.706 557.57 321.076 557.57 321.076L555.259 301.318L556.476 268.517C556.476 268.517 560.349 241.034 568.537 242.587C576.725 244.141 582.792 280.151 582.792 280.151Z" fill="black"/>
<path d="M584.126 280.151L587.998 284.253C587.998 284.253 591.097 306.857 592.644 308.971C594.192 311.085 597.848 319.496 594.416 325.812C594.416 325.812 593.312 329.249 593.975 330.689C594.639 332.129 588.996 339.333 588.996 339.333C588.996 339.333 581.581 345.98 580.03 346.979C578.479 347.978 570.295 355.954 567.53 356.065C564.765 356.175 563.861 359.612 563.861 359.612L548.258 360.166C548.258 360.166 539.633 359.715 537.765 360.935C537.765 360.935 538.766 347.747 529.137 339.103L541.417 334.671C541.417 334.671 546.067 332.666 547.504 330.572C548.409 329.288 549.692 328.32 551.173 327.803C551.173 327.803 554.602 325.365 554.712 324.035C554.822 322.706 558.904 321.076 558.904 321.076L556.593 301.318L557.81 268.517C557.81 268.517 561.683 241.034 569.871 242.587C578.059 244.141 584.126 280.151 584.126 280.151Z" fill="#E8F5FF"/>
<path opacity="0.1" d="M569.73 313.287C569.73 313.287 581.127 310.28 584.116 313.955C587.104 317.629 569.73 313.287 569.73 313.287Z" fill="black"/>
<path opacity="0.1" d="M567.074 318.327C570.947 321.042 582.897 321.152 582.897 321.152L567.074 318.327Z" fill="black"/>
<path opacity="0.1" d="M572.938 331.901C573.271 332.012 581.152 340.436 584.461 337.887C587.77 335.338 572.938 331.901 572.938 331.901Z" fill="black"/>
<path opacity="0.1" d="M466.797 261.203C466.797 261.203 469.112 277.162 467.971 283.662C466.83 290.162 470.993 298.216 470.993 298.216L466.797 261.203Z" fill="black"/>
<defs>
<linearGradient id="paint0_linear" x1="529.416" y1="179.585" x2="529.416" y2="173.445" gradientUnits="userSpaceOnUse">
<stop stop-color="#808080" stop-opacity="0.25"/>
<stop offset="0.54" stop-color="#808080" stop-opacity="0.12"/>
<stop offset="1" stop-color="#808080" stop-opacity="0.1"/>
</linearGradient>
</defs>
</svg>
