<svg width="336" height="75" viewBox="0 0 336 75" fill="none" xmlns="http://www.w3.org/2000/svg">
<g filter="url(#filter0_d)">
<path d="M223.098 41.043H227.765V45.3931H223.098V55.1304H217.999V45.3931H202.154V42.2529L217.74 13.1851H223.098V41.043ZM207.801 41.043H217.999V21.1074L207.801 41.043Z" fill="white"/>
</g>
<g filter="url(#filter1_d)">
<path d="M6.16563 31.3896L19.396 9.42278L32.6264 31.3897C34.439 34.4481 35.542 38.4157 35.542 42.3898C35.542 53.0835 28.1787 61.6286 19.396 61.6286C10.6133 61.6286 3.25 53.0835 3.25 42.3898C3.25 38.4157 4.35303 34.4481 6.16563 31.3896Z" stroke="#D14842" stroke-width="2.5"/>
<path d="M6.16563 31.3896L19.396 9.42278L32.6264 31.3897C34.439 34.4481 35.542 38.4157 35.542 42.3898C35.542 53.0835 28.1787 61.6286 19.396 61.6286C10.6133 61.6286 3.25 53.0835 3.25 42.3898C3.25 38.4157 4.35303 34.4481 6.16563 31.3896Z" stroke="url(#paint0_linear)" stroke-width="2.5"/>
</g>
<g filter="url(#filter2_d)">
<path d="M242.185 50.4771H258.635V55H236.884V13.0547H242.185V50.4771ZM269.726 55H264.627V23.8291H269.726V55ZM270.129 15.561C270.129 16.4253 269.889 17.1455 269.409 17.7217C268.929 18.2979 268.199 18.5859 267.22 18.5859C266.259 18.5859 265.539 18.2979 265.059 17.7217C264.579 17.1455 264.339 16.4253 264.339 15.561C264.339 14.6968 264.579 13.967 265.059 13.3716C265.539 12.7762 266.259 12.4785 267.22 12.4785C268.18 12.4785 268.9 12.7858 269.38 13.4004C269.88 13.9958 270.129 14.716 270.129 15.561ZM280.011 55V27.9487H275.949V23.8291H280.011V20.228C280.068 17.0591 280.865 14.5911 282.402 12.8242C283.958 11.0381 286.147 10.145 288.97 10.145C289.988 10.145 291.016 10.3083 292.053 10.6348L291.793 14.9561C291.064 14.7832 290.286 14.6968 289.46 14.6968C286.56 14.6968 285.11 16.7614 285.11 20.8906V23.8291H290.439V27.9487H285.11V55H280.011ZM306.889 55.5762C303.01 55.5762 300.033 54.4238 297.958 52.1191C295.884 49.7952 294.828 46.3958 294.79 41.9209V38.147C294.79 33.4992 295.798 29.8597 297.814 27.2285C299.85 24.5781 302.683 23.2529 306.313 23.2529C309.962 23.2529 312.689 24.4149 314.495 26.7388C316.3 29.0627 317.222 32.6829 317.26 37.5996V40.9414H299.86V41.6616C299.86 45.0034 300.484 47.4329 301.732 48.9502C303 50.4674 304.815 51.2261 307.177 51.2261C308.675 51.2261 309.991 50.9476 311.124 50.3906C312.276 49.8145 313.352 48.9118 314.351 47.6826L317.001 50.9092C314.792 54.0205 311.422 55.5762 306.889 55.5762ZM306.313 27.6318C304.2 27.6318 302.635 28.3617 301.617 29.8213C300.599 31.2617 300.023 33.5088 299.889 36.5625H312.161V35.8711C312.027 32.9134 311.489 30.8008 310.548 29.5332C309.626 28.2656 308.214 27.6318 306.313 27.6318Z" fill="white"/>
</g>
<g filter="url(#filter3_d)">
<path d="M69.1694 55V13.0547H81.125C84.9469 13.0547 87.8182 13.9862 89.7388 15.8491C91.6785 17.7121 92.6484 20.5065 92.6484 24.2324C92.6484 26.1914 92.1587 27.9199 91.1792 29.418C90.1997 30.916 88.8745 32.078 87.2036 32.9038C89.1242 33.48 90.6414 34.6611 91.7554 36.4473C92.8885 38.2334 93.4551 40.3844 93.4551 42.9004C93.4551 46.6647 92.418 49.6224 90.3438 51.7734C88.2887 53.9245 85.3503 55 81.5283 55H69.1694ZM74.4414 35.3813V50.4771H81.6436C83.641 50.4771 85.2254 49.8241 86.397 48.5181C87.5685 47.1929 88.1543 45.3395 88.1543 42.958C88.1543 37.9069 86.0225 35.3813 81.7588 35.3813H74.4414ZM74.4414 30.9448H81.2114C83.036 30.9448 84.5052 30.3302 85.6191 29.1011C86.7523 27.8719 87.3188 26.2394 87.3188 24.2036C87.3188 21.8989 86.8099 20.228 85.792 19.1909C84.7741 18.1346 83.2184 17.6064 81.125 17.6064H74.4414V30.9448ZM106.16 55H101.061V10.75H106.16V55ZM113.131 37.9741C113.131 33.4416 114.226 29.8597 116.416 27.2285C118.624 24.5781 121.534 23.2529 125.145 23.2529C128.755 23.2529 131.655 24.5397 133.845 27.1133C136.053 29.6868 137.187 33.1919 137.244 37.6284V40.9126C137.244 45.4259 136.149 48.9982 133.96 51.6294C131.771 54.2606 128.851 55.5762 125.202 55.5762C121.591 55.5762 118.691 54.299 116.502 51.7446C114.332 49.1903 113.208 45.7332 113.131 41.3735V37.9741ZM118.23 40.9126C118.23 44.12 118.855 46.6455 120.103 48.4893C121.371 50.3138 123.07 51.2261 125.202 51.2261C129.696 51.2261 132.011 47.9803 132.145 41.4888V37.9741C132.145 34.786 131.511 32.27 130.244 30.4263C128.976 28.5633 127.276 27.6318 125.145 27.6318C123.051 27.6318 121.371 28.5633 120.103 30.4263C118.855 32.27 118.23 34.7764 118.23 37.9453V40.9126ZM142.747 37.9741C142.747 33.4416 143.841 29.8597 146.031 27.2285C148.239 24.5781 151.149 23.2529 154.76 23.2529C158.37 23.2529 161.271 24.5397 163.46 27.1133C165.669 29.6868 166.802 33.1919 166.859 37.6284V40.9126C166.859 45.4259 165.765 48.9982 163.575 51.6294C161.386 54.2606 158.466 55.5762 154.817 55.5762C151.207 55.5762 148.307 54.299 146.117 51.7446C143.947 49.1903 142.823 45.7332 142.747 41.3735V37.9741ZM147.846 40.9126C147.846 44.12 148.47 46.6455 149.718 48.4893C150.986 50.3138 152.686 51.2261 154.817 51.2261C159.312 51.2261 161.626 47.9803 161.76 41.4888V37.9741C161.76 34.786 161.126 32.27 159.859 30.4263C158.591 28.5633 156.892 27.6318 154.76 27.6318C152.666 27.6318 150.986 28.5633 149.718 30.4263C148.47 32.27 147.846 34.7764 147.846 37.9453V40.9126ZM172.362 38.0029C172.362 33.2015 173.255 29.5428 175.041 27.0269C176.846 24.5109 179.43 23.2529 182.791 23.2529C185.767 23.2529 188.091 24.4629 189.762 26.8828V10.75H194.861V55H190.194L189.935 51.6582C188.264 54.2702 185.873 55.5762 182.762 55.5762C179.535 55.5762 177 54.3278 175.156 51.8311C173.332 49.3151 172.4 45.7716 172.362 41.2007V38.0029ZM177.461 40.9126C177.461 44.408 177.979 46.9816 179.017 48.6333C180.054 50.2658 181.744 51.082 184.087 51.082C186.622 51.082 188.514 49.8049 189.762 47.2505V31.521C188.456 29.0243 186.574 27.7759 184.116 27.7759C181.773 27.7759 180.083 28.6017 179.045 30.2534C178.008 31.8859 177.48 34.4019 177.461 37.8013V40.9126Z" fill="white"/>
</g>
<defs>
<filter id="filter0_d" x="200.154" y="11.1851" width="39.6108" height="55.9453" filterUnits="userSpaceOnUse" color-interpolation-filters="sRGB">
<feFlood flood-opacity="0" result="BackgroundImageFix"/>
<feColorMatrix in="SourceAlpha" type="matrix" values="0 0 0 0 0 0 0 0 0 0 0 0 0 0 0 0 0 0 127 0"/>
<feOffset dx="5" dy="5"/>
<feGaussianBlur stdDeviation="3.5"/>
<feColorMatrix type="matrix" values="0 0 0 0 0 0 0 0 0 0 0 0 0 0 0 0 0 0 0.25 0"/>
<feBlend mode="normal" in2="BackgroundImageFix" result="effect1_dropShadow"/>
<feBlend mode="normal" in="SourceGraphic" in2="effect1_dropShadow" result="shape"/>
</filter>
<filter id="filter1_d" x="0" y="5" width="48.792" height="69.8786" filterUnits="userSpaceOnUse" color-interpolation-filters="sRGB">
<feFlood flood-opacity="0" result="BackgroundImageFix"/>
<feColorMatrix in="SourceAlpha" type="matrix" values="0 0 0 0 0 0 0 0 0 0 0 0 0 0 0 0 0 0 127 0"/>
<feOffset dx="5" dy="5"/>
<feGaussianBlur stdDeviation="3.5"/>
<feColorMatrix type="matrix" values="0 0 0 0 0 0 0 0 0 0 0 0 0 0 0 0 0 0 0.25 0"/>
<feBlend mode="normal" in2="BackgroundImageFix" result="effect1_dropShadow"/>
<feBlend mode="normal" in="SourceGraphic" in2="effect1_dropShadow" result="shape"/>
</filter>
<filter id="filter2_d" x="234.885" y="8.14502" width="94.376" height="59.4312" filterUnits="userSpaceOnUse" color-interpolation-filters="sRGB">
<feFlood flood-opacity="0" result="BackgroundImageFix"/>
<feColorMatrix in="SourceAlpha" type="matrix" values="0 0 0 0 0 0 0 0 0 0 0 0 0 0 0 0 0 0 127 0"/>
<feOffset dx="5" dy="5"/>
<feGaussianBlur stdDeviation="3.5"/>
<feColorMatrix type="matrix" values="0 0 0 0 0 0 0 0 0 0 0 0 0 0 0 0 0 0 0.25 0"/>
<feBlend mode="normal" in2="BackgroundImageFix" result="effect1_dropShadow"/>
<feBlend mode="normal" in="SourceGraphic" in2="effect1_dropShadow" result="shape"/>
</filter>
<filter id="filter3_d" x="67.1699" y="8.75" width="139.692" height="58.8262" filterUnits="userSpaceOnUse" color-interpolation-filters="sRGB">
<feFlood flood-opacity="0" result="BackgroundImageFix"/>
<feColorMatrix in="SourceAlpha" type="matrix" values="0 0 0 0 0 0 0 0 0 0 0 0 0 0 0 0 0 0 127 0"/>
<feOffset dx="5" dy="5"/>
<feGaussianBlur stdDeviation="3.5"/>
<feColorMatrix type="matrix" values="0 0 0 0 0 0 0 0 0 0 0 0 0 0 0 0 0 0 0.25 0"/>
<feBlend mode="normal" in2="BackgroundImageFix" result="effect1_dropShadow"/>
<feBlend mode="normal" in="SourceGraphic" in2="effect1_dropShadow" result="shape"/>
</filter>
<linearGradient id="paint0_linear" x1="19.396" y1="7" x2="19.396" y2="62.8786" gradientUnits="userSpaceOnUse">
<stop stop-color="white"/>
<stop offset="1" stop-color="white" stop-opacity="0"/>
</linearGradient>
</defs>
</svg>
