<svg width="336" height="462" viewBox="0 0 336 462" fill="none" xmlns="http://www.w3.org/2000/svg">
<path d="M336 168C336 314.928 168 461.864 168 461.864C168 461.864 0 314.928 0 168C0 123.444 17.6999 80.7122 49.2061 49.2061C80.7122 17.7 123.444 0 168 0C212.556 0 255.288 17.7 286.794 49.2061C318.3 80.7122 336 123.444 336 168V168Z" fill="#7DABFA"/>
<path d="M69 349.488C97.8512 390.407 131.044 428.085 168 461.864C168 461.864 308.8 338.664 332.536 205.064C267.384 277.384 172.048 329.864 69 349.488Z" fill="#73A0EE"/>
<path d="M168 301.864C243.111 301.864 304 240.975 304 165.864C304 90.7533 243.111 29.864 168 29.864C92.8893 29.864 32 90.7533 32 165.864C32 240.975 92.8893 301.864 168 301.864Z" fill="#EEEEEE"/>
<path d="M124 104.684C124 127.666 143.741 146.368 168 146.368C192.259 146.368 212 127.666 212 104.684C212 81.7023 192.259 63 168 63C143.741 63 124 81.7023 124 104.684ZM246.222 239H256V229.737C256 193.99 225.288 164.895 187.556 164.895H148.444C110.702 164.895 80 193.99 80 229.737V239H246.222Z" fill="#73A0EE"/>
</svg>
